<?xml version="1.0" encoding="UTF-8" standalone="no"?>
<!-- Created with sK1/UniConvertor (http://sk1project.org/) -->

<svg
   xmlns:dc="http://purl.org/dc/elements/1.1/"
   xmlns:cc="http://creativecommons.org/ns#"
   xmlns:rdf="http://www.w3.org/1999/02/22-rdf-syntax-ns#"
   xmlns:svg="http://www.w3.org/2000/svg"
   xmlns="http://www.w3.org/2000/svg"
   xmlns:sodipodi="http://sodipodi.sourceforge.net/DTD/sodipodi-0.dtd"
   xmlns:inkscape="http://www.inkscape.org/namespaces/inkscape"
   enable-background="new"
   style="fill-rule:evenodd"
   sodipodi:docname="robot chassis.svg"
   inkscape:version="0.48.4 r9939"
   version="1.1"
   id="svg5452"
   viewBox="0 0 593.00149 727.00823"
   height="908.76038"
   width="741.25183">
  <sodipodi:namedview
     pagecolor="#ffffff"
     bordercolor="#666666"
     borderopacity="1"
     objecttolerance="10"
     gridtolerance="10"
     guidetolerance="10"
     inkscape:pageopacity="0"
     inkscape:pageshadow="2"
     inkscape:window-width="1920"
     inkscape:window-height="1058"
     id="namedview5864"
     showgrid="true"
     inkscape:snap-global="false"
     units="mm"
     fit-margin-top="3"
     fit-margin-left="3"
     fit-margin-right="3"
     fit-margin-bottom="3"
     inkscape:zoom="1"
     inkscape:cx="197.64594"
     inkscape:cy="489.4985"
     inkscape:window-x="-8"
     inkscape:window-y="-8"
     inkscape:window-maximized="1"
     inkscape:current-layer="layer1"
     showguides="true"
     inkscape:guide-bbox="true">
    <inkscape:grid
       type="xygrid"
       id="grid3221"
       empspacing="5"
       visible="true"
       enabled="true"
       snapvisiblegridlinesonly="true"
       originx="-7.6736651px"
       originy="-2.9596892px"
       color="#0000ff"
       opacity="0.01960784"
       empcolor="#0000ff"
       empopacity="0.03921569"
       units="mm" />
  </sodipodi:namedview>
  <metadata
     id="metadata5868">
    <rdf:RDF>
      <cc:Work
         rdf:about="">
        <dc:format>image/svg+xml</dc:format>
        <dc:type
           rdf:resource="http://purl.org/dc/dcmitype/StillImage" />
        <dc:title></dc:title>
      </cc:Work>
    </rdf:RDF>
  </metadata>
  <defs
     id="defs5866" />
  <g
     id="g5862"
     transform="translate(-6.1389316,-112.51373)"
     style="fill:none;fill-opacity:1;stroke:#ff0000;stroke-opacity:1;stroke-width:0.14173229;stroke-miterlimit:4;stroke-dasharray:none" />
  <g
     style="display:inline"
     inkscape:label="Graveren"
     id="layer1"
     inkscape:groupmode="layer"
     sodipodi:insensitive="true">
    <path
       inkscape:connector-curvature="0"
       id="path5860"
       d="m 116.63694,63.67088 -0.673,0 c -0.014,-0.44 -0.139,-0.79 -0.374,-1.05 -0.236,-0.261 -0.547,-0.391 -0.93,-0.391 -0.413,0 -0.742,0.13 -0.985,0.388 -0.242,0.258 -0.363,0.61 -0.363,1.053 0,0.644 0.498,1.132 1.495,1.46 0.078,0.027 0.136,0.045 0.175,0.059 0.521,0.18 0.897,0.406 1.125,0.681 0.23,0.275 0.345,0.634 0.345,1.077 0,0.567 -0.177,1.03 -0.53,1.392 -0.354,0.361 -0.81,0.541 -1.37,0.541 -0.534,0 -0.957,-0.165 -1.27,-0.493 -0.312,-0.328 -0.487,-0.792 -0.522,-1.387 l 0.66,0 c 0.035,0.389 0.152,0.687 0.347,0.897 0.195,0.21 0.456,0.315 0.785,0.315 0.351,0 0.64,-0.115 0.861,-0.345 0.224,-0.228 0.335,-0.522 0.335,-0.877 0,-0.185 -0.033,-0.345 -0.1,-0.48 -0.066,-0.135 -0.173,-0.258 -0.319,-0.37 -0.151,-0.11 -0.437,-0.233 -0.86,-0.37 -0.244,-0.078 -0.429,-0.141 -0.557,-0.191 -0.462,-0.179 -0.795,-0.407 -0.999,-0.685 -0.203,-0.279 -0.305,-0.644 -0.305,-1.097 0,-0.69 0.189,-1.247 0.564,-1.668 0.376,-0.422 0.875,-0.632 1.496,-0.632 0.58,0 1.05,0.2 1.412,0.598 0.362,0.399 0.547,0.924 0.557,1.575 z m -5.734,1.89 -2.988,0 0,-0.703 2.988,0 0,-2.53 -2.988,0 0,-0.688 3.692,0 0,7.11 -3.692,0 0,-0.699 2.988,0 0,-2.49 z m -4.906,2.49 0,-6.411 0.688,0 0,7.11 -1.91,0 c -0.42,0 -0.757,-0.032 -1.013,-0.095 -0.255,-0.064 -0.487,-0.169 -0.695,-0.315 -0.284,-0.199 -0.507,-0.464 -0.672,-0.797 -0.165,-0.332 -0.247,-0.683 -0.247,-1.055 0,-0.55 0.164,-1.023 0.49,-1.42 0.329,-0.398 0.737,-0.615 1.229,-0.65 l -1.719,-2.778 0.83,0 2.11,3.428 -0.673,0 c -0.45,0 -0.815,0.132 -1.097,0.395 -0.281,0.263 -0.423,0.603 -0.423,1.017 0,0.25 0.043,0.478 0.13,0.683 0.085,0.205 0.213,0.383 0.383,0.537 0.14,0.126 0.309,0.216 0.505,0.271 0.197,0.054 0.549,0.08 1.054,0.08 l 1.03,0 z m -5.64,-3.051 0,-2.682 -0.982,0 c -0.577,0 -1.002,0.108 -1.276,0.327 -0.275,0.218 -0.414,0.555 -0.414,1.006 0,0.454 0.14,0.79 0.42,1.014 0.28,0.223 0.704,0.335 1.27,0.335 l 0.982,0 z m 0,3.071 0,-2.393 -0.42,0 c -0.69,0 -1.173,0.095 -1.448,0.285 -0.275,0.192 -0.414,0.503 -0.414,0.937 0,0.406 0.134,0.703 0.4,0.89 0.268,0.188 0.695,0.281 1.28,0.281 l 0.602,0 z m 0.668,0.679 -1.323,0 c -0.805,0 -1.395,-0.152 -1.774,-0.457 -0.378,-0.305 -0.566,-0.778 -0.566,-1.423 0,-0.325 0.063,-0.604 0.19,-0.835 0.128,-0.232 0.318,-0.42 0.571,-0.567 -0.383,-0.16 -0.671,-0.383 -0.863,-0.672 -0.192,-0.288 -0.288,-0.64 -0.288,-1.056 0,-0.724 0.2,-1.254 0.598,-1.592 0.398,-0.338 1.027,-0.508 1.883,-0.508 l 1.572,0 0,7.11 z m -7.177,-4.102 0,-0.65 2.29,0 0,0.65 -2.29,0 z m -1.578,-0.66 c 0,-0.59 -0.152,-1.048 -0.455,-1.377 -0.302,-0.328 -0.722,-0.493 -1.258,-0.493 -0.536,0 -0.954,0.163 -1.257,0.488 -0.302,0.325 -0.453,0.78 -0.453,1.362 l 0,2.452 c 0,0.578 0.151,1.031 0.456,1.36 0.305,0.326 0.722,0.49 1.254,0.49 0.536,0 0.956,-0.165 1.258,-0.495 0.303,-0.332 0.455,-0.792 0.455,-1.385 l 0,-2.402 z m 0.688,0.152 0,2.108 c 0,0.46 -0.033,0.805 -0.098,1.038 -0.065,0.232 -0.172,0.45 -0.322,0.652 -0.235,0.308 -0.522,0.547 -0.861,0.713 -0.341,0.165 -0.714,0.249 -1.122,0.249 -0.745,0 -1.332,-0.232 -1.762,-0.694 -0.43,-0.461 -0.645,-1.101 -0.645,-1.918 l 0,-2.178 c 0,-0.384 0.032,-0.702 0.094,-0.954 0.061,-0.253 0.159,-0.475 0.296,-0.666 0.225,-0.317 0.513,-0.56 0.865,-0.734 0.352,-0.171 0.735,-0.258 1.152,-0.258 0.408,0 0.78,0.081 1.118,0.246 0.34,0.166 0.63,0.404 0.875,0.716 0.144,0.181 0.247,0.405 0.312,0.666 0.065,0.262 0.098,0.6 0.098,1.014 z m -8.018,0.59 c -0.487,0 -0.897,0.17 -1.227,0.508 -0.33,0.338 -0.495,0.755 -0.495,1.25 0,0.5 0.168,0.923 0.505,1.267 0.337,0.343 0.745,0.515 1.227,0.515 0.465,0 0.855,-0.167 1.168,-0.499 0.315,-0.331 0.472,-0.756 0.472,-1.273 0,-0.515 -0.155,-0.938 -0.467,-1.27 -0.31,-0.332 -0.705,-0.498 -1.183,-0.498 z m 0.166,-3.09 0.874,0 -1.658,2.576 c 0.151,-0.035 0.291,-0.061 0.42,-0.08 0.126,-0.018 0.241,-0.026 0.345,-0.026 0.645,0 1.178,0.225 1.599,0.673 0.422,0.45 0.632,1.015 0.632,1.695 0,0.7 -0.228,1.278 -0.683,1.735 -0.455,0.458 -1.035,0.687 -1.739,0.687 -0.69,0 -1.263,-0.225 -1.719,-0.677 -0.459,-0.45 -0.687,-1.005 -0.687,-1.662 0,-0.57 0.293,-1.306 0.88,-2.208 0.055,-0.087 0.097,-0.153 0.127,-0.2 l 1.609,-2.513 z"
       style="fill:none;stroke:#000000;stroke-width:0.14173229;stroke-miterlimit:4;stroke-opacity:1;stroke-dasharray:none;display:inline"
       transform="translate(-4.1173137,-1.9891283)" />
    <path
       inkscape:connector-curvature="0"
       id="path5848"
       d="m 49.718228,102.07744 0.674,0 c 0.013,0.44 0.138,0.79 0.373,1.05 0.236,0.262 0.547,0.392 0.93,0.392 0.413,0 0.742,-0.13 0.985,-0.389 0.242,-0.258 0.363,-0.61 0.363,-1.053 0,-0.644 -0.498,-1.132 -1.495,-1.46 -0.078,-0.027 -0.136,-0.045 -0.175,-0.059 -0.521,-0.18 -0.896,-0.406 -1.125,-0.681002 -0.23,-0.275 -0.345,-0.634 -0.345,-1.077 0,-0.567 0.177,-1.03 0.53,-1.391 0.354,-0.362 0.81,-0.542 1.37,-0.542 0.534,0 0.957,0.165 1.27,0.493 0.312,0.329 0.487,0.792 0.522,1.387 l -0.66,0 c -0.035,-0.389 -0.152,-0.687 -0.347,-0.897 -0.195,-0.21 -0.456,-0.315 -0.785,-0.315 -0.351,0 -0.64,0.115 -0.861,0.345 -0.224,0.228 -0.335,0.522 -0.335,0.877 0,0.185 0.033,0.345 0.1,0.48 0.066,0.135 0.173,0.258 0.319,0.37 0.151,0.11 0.437,0.233 0.86,0.37 0.244,0.078 0.429,0.141002 0.557,0.191002 0.462,0.179 0.795,0.407 0.999,0.685 0.203,0.279 0.305,0.644 0.305,1.097 0,0.69 -0.189,1.247 -0.564,1.668 -0.376,0.422 -0.875,0.632 -1.496,0.632 -0.58,0 -1.05,-0.2 -1.412,-0.598 -0.362,-0.398 -0.547,-0.923 -0.557,-1.575 z m 5.734,-1.89 2.988,0 0,0.703 -2.988,0 0,2.53 2.988,0 0,0.688 -3.692,0 0,-7.110002 3.692,0 0,0.699 -2.988,0 0,2.490002 z m 4.906,-2.490002 0,6.411002 -0.688,0 0,-7.110002 1.91,0 c 0.42,0 0.757,0.032 1.013,0.095 0.255,0.064 0.487,0.169 0.695,0.316 0.284,0.198 0.507,0.463 0.672,0.796 0.165,0.332 0.247,0.684 0.247,1.055 0,0.55 -0.164,1.023002 -0.49,1.420002 -0.329,0.399 -0.737,0.615 -1.229,0.65 l 1.719,2.778 -0.83,0 -2.11,-3.428 0.673,0 c 0.45,0 0.815,-0.132 1.097,-0.395 0.281,-0.263 0.423,-0.603002 0.423,-1.017002 0,-0.25 -0.043,-0.478 -0.13,-0.683 -0.085,-0.205 -0.213,-0.383 -0.383,-0.536 -0.14,-0.127 -0.309,-0.217 -0.505,-0.272 -0.197,-0.054 -0.549,-0.08 -1.054,-0.08 l -1.03,0 z m 5.64,3.052002 0,2.681 0.982,0 c 0.577,0 1.002,-0.108 1.277,-0.326 0.275,-0.219 0.413,-0.555 0.413,-1.007 0,-0.453 -0.14,-0.79 -0.42,-1.014 -0.28,-0.223 -0.704,-0.334 -1.27,-0.334 l -0.982,0 z m 0,-3.072002 0,2.393002 0.42,0 c 0.69,0 1.174,-0.095 1.448,-0.285002 0.275,-0.192 0.414,-0.503 0.414,-0.936 0,-0.407 -0.133,-0.704 -0.4,-0.891 -0.268,-0.188 -0.695,-0.281 -1.28,-0.281 l -0.602,0 z m -0.668,-0.679 1.323,0 c 0.805,0 1.395,0.152 1.774,0.457 0.378,0.305 0.566,0.778 0.566,1.424 0,0.324 -0.063,0.603 -0.19,0.834 -0.128,0.232 -0.318,0.421002 -0.571,0.567002 0.383,0.16 0.671,0.384 0.863,0.672 0.192,0.288 0.288,0.64 0.288,1.057 0,0.723 -0.2,1.253 -0.598,1.591 -0.398,0.338 -1.027,0.508 -1.883,0.508 l -1.572,0 0,-7.110002 z m 7.177,4.102002 0,0.65 -2.29,0 0,-0.65 2.29,0 z m 1.578,0.66 c 0,0.59 0.152,1.049 0.455,1.377 0.302,0.328 0.722,0.493 1.258,0.493 0.536,0 0.954,-0.163 1.257,-0.488 0.302,-0.325 0.454,-0.78 0.454,-1.362 l 0,-2.452002 c 0,-0.578 -0.152,-1.031 -0.457,-1.36 -0.305,-0.326 -0.722,-0.489 -1.254,-0.489 -0.536,0 -0.956,0.165 -1.258,0.494 -0.303,0.332 -0.455,0.792 -0.455,1.385 l 0,2.402002 z m -0.688,-0.152 0,-2.108002 c 0,-0.46 0.033,-0.805 0.098,-1.038 0.065,-0.232 0.172,-0.45 0.322,-0.652 0.235,-0.308 0.522,-0.547 0.861,-0.713 0.341,-0.165 0.714,-0.249 1.122,-0.249 0.745,0 1.332,0.232 1.762,0.694 0.43,0.462 0.645,1.102 0.645,1.918 l 0,2.178002 c 0,0.384 -0.032,0.702 -0.094,0.954 -0.061,0.253 -0.159,0.475 -0.296,0.666 -0.225,0.317 -0.513,0.561 -0.865,0.734 -0.352,0.171 -0.735,0.258 -1.152,0.258 -0.408,0 -0.78,-0.081 -1.118,-0.246 -0.34,-0.166 -0.63,-0.404 -0.875,-0.716 -0.144,-0.181 -0.247,-0.405 -0.312,-0.666 -0.065,-0.262 -0.098,-0.6 -0.098,-1.014 z m 7.312,2.5 -0.782,0 2.813,-6.411002 -3.111,0 0,-0.699 3.921,0 0,0.64 -2.841,6.470002 z"
       style="fill:none;stroke:#000000;stroke-width:0.14173229;stroke-miterlimit:4;stroke-opacity:1;stroke-dasharray:none;display:inline"
       transform="translate(-4.2210225,0.38912824)" />
    <path
       inkscape:connector-curvature="0"
       id="path5854"
       d="m 141.84423,147.43243 0.673,0 c 0.014,0.44 0.139,0.79 0.374,1.05 0.236,0.262 0.547,0.392 0.93,0.392 0.413,0 0.742,-0.13 0.985,-0.389 0.242,-0.258 0.363,-0.61 0.363,-1.053 0,-0.643 -0.498,-1.132 -1.495,-1.46 -0.078,-0.027 -0.136,-0.045 -0.175,-0.058 -0.521,-0.18 -0.896,-0.407 -1.125,-0.682 -0.23,-0.275 -0.345,-0.633 -0.345,-1.077 0,-0.566 0.177,-1.03 0.53,-1.391 0.354,-0.362 0.81,-0.542 1.37,-0.542 0.534,0 0.957,0.165 1.27,0.493 0.312,0.329 0.487,0.792 0.522,1.387 l -0.66,0 c -0.035,-0.388 -0.152,-0.687 -0.347,-0.897 -0.195,-0.21 -0.456,-0.315 -0.785,-0.315 -0.351,0 -0.64,0.115 -0.861,0.345 -0.224,0.229 -0.335,0.522 -0.335,0.877 0,0.185 0.033,0.345 0.1,0.48 0.066,0.135 0.173,0.258 0.319,0.37 0.151,0.11 0.437,0.233 0.86,0.37 0.244,0.078 0.429,0.142 0.557,0.192 0.462,0.178 0.795,0.406 0.999,0.685 0.203,0.278 0.305,0.643 0.305,1.096 0,0.69 -0.189,1.247 -0.564,1.669 -0.376,0.421 -0.875,0.631 -1.496,0.631 -0.58,0 -1.05,-0.2 -1.412,-0.598 -0.362,-0.398 -0.547,-0.923 -0.557,-1.575 z m 5.734,-1.89 2.988,0 0,0.703 -2.988,0 0,2.53 2.988,0 0,0.689 -3.692,0 0,-7.11 3.692,0 0,0.698 -2.988,0 0,2.49 z m 4.906,-2.49 0,6.412 -0.688,0 0,-7.11 1.91,0 c 0.42,0 0.757,0.031 1.013,0.095 0.255,0.063 0.487,0.168 0.695,0.315 0.284,0.198 0.507,0.463 0.672,0.796 0.165,0.332 0.247,0.684 0.247,1.055 0,0.55 -0.164,1.024 -0.49,1.42 -0.329,0.399 -0.737,0.615 -1.229,0.65 l 1.719,2.779 -0.83,0 -2.11,-3.429 0.673,0 c 0.45,0 0.815,-0.131 1.097,-0.395 0.281,-0.263 0.423,-0.603 0.423,-1.016 0,-0.25 -0.043,-0.479 -0.13,-0.684 -0.085,-0.205 -0.213,-0.383 -0.383,-0.536 -0.14,-0.127 -0.309,-0.217 -0.505,-0.272 -0.197,-0.053 -0.549,-0.08 -1.054,-0.08 l -1.03,0 z m 5.64,3.052 0,2.681 0.982,0 c 0.577,0 1.002,-0.108 1.277,-0.326 0.274,-0.219 0.413,-0.555 0.413,-1.007 0,-0.453 -0.14,-0.79 -0.42,-1.013 -0.28,-0.224 -0.704,-0.335 -1.27,-0.335 l -0.982,0 z m 0,-3.072 0,2.393 0.42,0 c 0.69,0 1.174,-0.095 1.449,-0.285 0.274,-0.191 0.413,-0.503 0.413,-0.936 0,-0.407 -0.133,-0.704 -0.4,-0.89 -0.268,-0.189 -0.695,-0.282 -1.28,-0.282 l -0.602,0 z m -0.668,-0.678 1.323,0 c 0.805,0 1.395,0.151 1.774,0.456 0.378,0.305 0.566,0.779 0.566,1.424 0,0.325 -0.063,0.603 -0.19,0.835 -0.128,0.231 -0.318,0.42 -0.571,0.566 0.383,0.16 0.671,0.384 0.863,0.672 0.192,0.288 0.288,0.64 0.288,1.057 0,0.723 -0.2,1.253 -0.598,1.591 -0.398,0.339 -1.027,0.509 -1.883,0.509 l -1.572,0 0,-7.11 z m 7.177,4.101 0,0.65 -2.29,0 0,-0.65 2.29,0 z m 1.578,0.66 c 0,0.59 0.152,1.049 0.455,1.377 0.302,0.328 0.722,0.493 1.258,0.493 0.536,0 0.954,-0.163 1.257,-0.488 0.302,-0.325 0.454,-0.78 0.454,-1.362 l 0,-2.451 c 0,-0.579 -0.152,-1.032 -0.457,-1.36 -0.305,-0.327 -0.722,-0.49 -1.254,-0.49 -0.536,0 -0.956,0.165 -1.258,0.495 -0.303,0.331 -0.455,0.791 -0.455,1.385 l 0,2.401 z m -0.688,-0.151 0,-2.109 c 0,-0.46 0.033,-0.805 0.098,-1.038 0.065,-0.232 0.172,-0.45 0.322,-0.652 0.235,-0.308 0.522,-0.546 0.861,-0.713 0.341,-0.165 0.714,-0.248 1.122,-0.248 0.745,0 1.332,0.231 1.762,0.693 0.43,0.462 0.645,1.102 0.645,1.918 l 0,2.179 c 0,0.383 -0.032,0.701 -0.094,0.953 -0.061,0.253 -0.159,0.475 -0.296,0.667 -0.225,0.317 -0.513,0.56 -0.865,0.733 -0.352,0.172 -0.735,0.258 -1.152,0.258 -0.408,0 -0.78,-0.081 -1.118,-0.246 -0.34,-0.165 -0.63,-0.404 -0.875,-0.715 -0.144,-0.182 -0.247,-0.405 -0.312,-0.667 -0.065,-0.262 -0.098,-0.6 -0.098,-1.013 z m 8.018,-0.59 c 0.487,0 0.897,-0.17 1.227,-0.509 0.33,-0.338 0.495,-0.755 0.495,-1.25 0,-0.5 -0.168,-0.923 -0.505,-1.266 -0.337,-0.344 -0.745,-0.515 -1.227,-0.515 -0.465,0 -0.855,0.166 -1.168,0.498 -0.315,0.332 -0.472,0.757 -0.472,1.273 0,0.515 0.155,0.939 0.467,1.27 0.31,0.332 0.705,0.499 1.183,0.499 z m -0.166,3.09 -0.874,0 1.659,-2.577 c -0.152,0.035 -0.292,0.062 -0.421,0.08 -0.126,0.018 -0.241,0.027 -0.345,0.027 -0.644,0 -1.178,-0.225 -1.599,-0.674 -0.422,-0.45 -0.632,-1.015 -0.632,-1.695 0,-0.7 0.228,-1.278 0.683,-1.735 0.455,-0.458 1.035,-0.686 1.739,-0.686 0.69,0 1.263,0.225 1.719,0.676 0.459,0.45 0.687,1.005 0.687,1.662 0,0.57 -0.293,1.307 -0.88,2.208 -0.055,0.087 -0.097,0.154 -0.127,0.2 l -1.609,2.514 z"
       style="fill:none;stroke:#000000;stroke-width:0.14173229;stroke-miterlimit:4;stroke-opacity:1;stroke-dasharray:none;display:inline"
       transform="translate(-0.44744,-0.81663885)" />
    <path
       inkscape:connector-curvature="0"
       id="path5834"
       d="m 209.7558,111.30513 -0.6732,0 c -0.0134,-0.44 -0.1384,-0.79 -0.3733,-1.05 -0.2367,-0.262 -0.5469,-0.392 -0.9301,-0.392 -0.4133,0 -0.7418,0.13 -0.985,0.388 -0.2418,0.259 -0.3634,0.61 -0.3634,1.054 0,0.643 0.4983,1.132 1.4949,1.46 0.0786,0.027 0.1367,0.045 0.1752,0.058 0.5216,0.18 0.8966,0.407 1.1248,0.682 0.2302,0.275 0.345,0.633 0.345,1.077 0,0.566 -0.1766,1.029 -0.5298,1.391 -0.3535,0.362 -0.8101,0.542 -1.37,0.542 -0.5334,0 -0.9566,-0.165 -1.2702,-0.493 -0.3115,-0.329 -0.4867,-0.792 -0.5215,-1.387 l 0.6598,0 c 0.0352,0.388 0.1517,0.686 0.3467,0.897 0.1951,0.21 0.4567,0.314 0.7852,0.314 0.3515,0 0.6398,-0.114 0.8615,-0.345 0.2234,-0.228 0.3351,-0.521 0.3351,-0.876 0,-0.185 -0.0332,-0.345 -0.1001,-0.48 -0.0666,-0.135 -0.1733,-0.258 -0.3198,-0.37 -0.1502,-0.11 -0.4368,-0.233 -0.86,-0.37 -0.2435,-0.079 -0.4283,-0.142 -0.5567,-0.192 -0.4618,-0.178 -0.7952,-0.406 -0.9984,-0.685 -0.2032,-0.278 -0.305,-0.643 -0.305,-1.097 0,-0.689 0.1882,-1.246 0.5632,-1.668 0.3767,-0.422 0.8751,-0.632 1.4967,-0.632 0.58,0 1.05,0.201 1.4117,0.599 0.3617,0.398 0.5468,0.923 0.5567,1.575 z m -5.7334,1.89 -2.9883,0 0,-0.703 2.9883,0 0,-2.531 -2.9883,0 0,-0.688 3.6919,0 0,7.11 -3.6919,0 0,-0.698 2.9883,0 0,-2.49 z m -4.9067,2.49 0,-6.412 0.6885,0 0,7.11 -1.9103,0 c -0.4198,0 -0.7565,-0.031 -1.0131,-0.095 -0.255,-0.063 -0.4867,-0.168 -0.695,-0.315 -0.2835,-0.198 -0.5068,-0.463 -0.6718,-0.796 -0.165,-0.332 -0.2466,-0.684 -0.2466,-1.055 0,-0.55 0.1632,-1.024 0.4901,-1.421 0.3282,-0.398 0.7367,-0.614 1.2282,-0.65 l -1.7183,-2.778 0.83,0 2.1101,3.428 -0.6735,0 c -0.4499,0 -0.815,0.132 -1.0965,0.396 -0.2818,0.263 -0.4235,0.603 -0.4235,1.016 0,0.25 0.0434,0.478 0.1301,0.683 0.0851,0.205 0.2132,0.384 0.3833,0.537 0.14,0.127 0.3084,0.217 0.5051,0.272 0.1965,0.053 0.5482,0.08 1.0533,0.08 l 1.0299,0 z m -5.6398,-3.052 0,-2.682 -0.9817,0 c -0.5768,0 -1.0017,0.109 -1.2767,0.327 -0.275,0.219 -0.4133,0.555 -0.4133,1.007 0,0.453 0.14,0.79 0.4198,1.013 0.2801,0.223 0.7036,0.335 1.2702,0.335 l 0.9817,0 z m 0,3.072 0,-2.394 -0.4201,0 c -0.69,0 -1.1733,0.096 -1.4482,0.286 -0.275,0.191 -0.4134,0.503 -0.4134,0.936 0,0.407 0.1333,0.703 0.4001,0.89 0.2681,0.188 0.695,0.282 1.2798,0.282 l 0.6018,0 z m 0.6684,0.678 -1.3235,0 c -0.805,0 -1.3949,-0.151 -1.7733,-0.456 -0.3782,-0.305 -0.5667,-0.779 -0.5667,-1.424 0,-0.325 0.0635,-0.603 0.1899,-0.835 0.1284,-0.232 0.3183,-0.42 0.5718,-0.566 -0.3833,-0.161 -0.6715,-0.384 -0.8635,-0.672 -0.1916,-0.288 -0.2883,-0.64 -0.2883,-1.057 0,-0.723 0.2002,-1.253 0.5984,-1.592 0.3983,-0.338 1.0267,-0.508 1.8834,-0.508 l 1.5718,0 0,7.11 z m -7.177,-4.101 0,-0.65 2.2901,0 0,0.65 -2.2901,0 z m -1.5784,-0.661 c 0,-0.589 -0.1516,-1.048 -0.455,-1.376 -0.30155,-0.328 -0.72165,-0.494 -1.25827,-0.494 -0.53516,0 -0.95325,0.164 -1.25684,0.489 -0.30164,0.325 -0.45325,0.78 -0.45325,1.362 l 0,2.451 c 0,0.578 0.15161,1.032 0.45661,1.36 0.30505,0.327 0.72174,0.49 1.25348,0.49 0.53662,0 0.95672,-0.165 1.25827,-0.495 0.3034,-0.331 0.455,-0.792 0.455,-1.385 l 0,-2.402 z m 0.6883,0.152 0,2.108 c 0,0.46 -0.0332,0.805 -0.0984,1.039 -0.0649,0.232 -0.1715,0.45 -0.3214,0.651 -0.235,0.309 -0.5219,0.547 -0.8618,0.714 -0.34013,0.165 -0.71348,0.248 -1.12162,0.248 -0.745,0 -1.33173,-0.231 -1.76178,-0.693 -0.42999,-0.462 -0.64484,-1.102 -0.64484,-1.919 l 0,-2.178 c 0,-0.383 0.0314,-0.702 0.0933,-0.953 0.0615,-0.253 0.15985,-0.475 0.29651,-0.667 0.22504,-0.317 0.51331,-0.56 0.86511,-0.733 0.35175,-0.172 0.73505,-0.259 1.15174,-0.259 0.40814,0 0.78009,0.082 1.11822,0.247 0.3402,0.165 0.6302,0.403 0.8751,0.715 0.1434,0.182 0.2466,0.405 0.3115,0.667 0.0652,0.262 0.0984,0.6 0.0984,1.013 z m -8.09011,1.528 c 0.48669,0 0.89691,-0.17 1.22681,-0.508 0.32995,-0.338 0.49493,-0.755 0.49493,-1.25 0,-0.502 -0.16834,-0.925 -0.50653,-1.271 -0.33844,-0.347 -0.74664,-0.521 -1.22516,-0.521 -0.46484,0 -0.85492,0.169 -1.16815,0.504 -0.31519,0.335 -0.47168,0.761 -0.47168,1.278 0,0.515 0.15478,0.939 0.46661,1.27 0.31012,0.332 0.70496,0.498 1.18317,0.498 z m -0.17151,3.082 -0.86823,0 1.65827,-2.568 c -0.15167,0.035 -0.29169,0.062 -0.42011,0.08 -0.12671,0.018 -0.24151,0.026 -0.34497,0.026 -0.64489,0 -1.17834,-0.224 -1.59985,-0.673 -0.42181,-0.45 -0.6319,-1.015 -0.6319,-1.695 0,-0.696 0.23023,-1.275 0.68854,-1.733 0.45813,-0.458 1.0398,-0.689 1.74335,-0.689 0.68994,0 1.26165,0.226 1.71496,0.677 0.45496,0.45 0.6817,1.007 0.6817,1.667 0,0.567 -0.29339,1.301 -0.88012,2.207 -0.0584,0.088 -0.10181,0.155 -0.13153,0.201 l -1.61011,2.5 z"
       style="fill:none;stroke:#000000;stroke-width:0.14173229;stroke-miterlimit:4;stroke-opacity:1;stroke-dasharray:none;display:inline"
       transform="translate(-0.0084412,-2.3833613)" />
    <path
       style="fill:none;stroke:#000000;stroke-width:0.14173229;stroke-miterlimit:4;stroke-opacity:1;stroke-dasharray:none;display:inline"
       d="m 364.18993,163.12086 0,0.673 c -0.44,0.013 -0.79,0.138 -1.05,0.373 -0.261,0.237 -0.392,0.547 -0.392,0.931 0,0.413 0.131,0.741 0.389,0.985 0.258,0.241 0.61,0.363 1.053,0.363 0.644,0 1.132,-0.498 1.46,-1.495 0.027,-0.079 0.045,-0.137 0.059,-0.175 0.18,-0.522 0.406,-0.897 0.681,-1.125 0.275,-0.23 0.634,-0.345 1.077,-0.345 0.567,0 1.03,0.177 1.392,0.53 0.361,0.353 0.541,0.81 0.541,1.37 0,0.533 -0.165,0.956 -0.493,1.27 -0.329,0.312 -0.792,0.487 -1.387,0.522 l 0,-0.66 c 0.389,-0.035 0.687,-0.152 0.897,-0.347 0.21,-0.195 0.315,-0.457 0.315,-0.785 0,-0.352 -0.115,-0.64 -0.345,-0.862 -0.228,-0.223 -0.522,-0.335 -0.877,-0.335 -0.185,0 -0.345,0.033 -0.48,0.1 -0.135,0.067 -0.258,0.174 -0.37,0.32 -0.11,0.15 -0.233,0.437 -0.37,0.86 -0.078,0.244 -0.141,0.428 -0.191,0.557 -0.179,0.462 -0.407,0.795 -0.685,0.998 -0.279,0.203 -0.644,0.305 -1.097,0.305 -0.69,0 -1.247,-0.188 -1.668,-0.563 -0.422,-0.377 -0.632,-0.875 -0.632,-1.497 0,-0.58 0.2,-1.05 0.598,-1.411 0.398,-0.362 0.924,-0.547 1.575,-0.557 z m 1.89,5.733 0,2.989 -0.703,0 0,-2.989 -2.53,0 0,2.989 -0.688,0 0,-3.692 7.11,0 0,3.692 -0.699,0 0,-2.989 -2.49,0 z m 2.49,4.907 -6.411,0 0,-0.689 7.11,0 0,1.911 c 0,0.42 -0.032,0.756 -0.095,1.013 -0.064,0.255 -0.169,0.487 -0.315,0.695 -0.199,0.283 -0.464,0.507 -0.797,0.672 -0.332,0.165 -0.683,0.246 -1.055,0.246 -0.55,0 -1.023,-0.163 -1.42,-0.49 -0.398,-0.328 -0.615,-0.737 -0.65,-1.228 l -2.778,1.718 0,-0.83 3.428,-2.11 0,0.674 c 0,0.45 0.132,0.815 0.395,1.096 0.263,0.282 0.603,0.424 1.017,0.424 0.25,0 0.478,-0.044 0.683,-0.13 0.205,-0.085 0.383,-0.214 0.536,-0.384 0.127,-0.14 0.217,-0.308 0.272,-0.505 0.054,-0.196 0.08,-0.548 0.08,-1.053 l 0,-1.03 z m -3.052,5.64 -2.681,0 0,0.981 c 0,0.577 0.108,1.002 0.327,1.277 0.218,0.275 0.554,0.413 1.006,0.413 0.454,0 0.79,-0.14 1.014,-0.419 0.223,-0.28 0.334,-0.704 0.334,-1.271 l 0,-0.981 z m 3.072,0 -2.393,0 0,0.42 c 0,0.69 0.095,1.173 0.285,1.448 0.192,0.275 0.503,0.413 0.937,0.413 0.406,0 0.703,-0.133 0.89,-0.399 0.188,-0.269 0.281,-0.696 0.281,-1.28 l 0,-0.602 z m 0.679,-0.669 0,1.324 c 0,0.805 -0.152,1.395 -0.457,1.773 -0.305,0.378 -0.778,0.567 -1.424,0.567 -0.324,0 -0.603,-0.064 -0.834,-0.19 -0.232,-0.128 -0.42,-0.318 -0.567,-0.572 -0.16,0.383 -0.384,0.672 -0.672,0.864 -0.288,0.191 -0.64,0.288 -1.057,0.288 -0.723,0 -1.253,-0.2 -1.591,-0.598 -0.338,-0.399 -0.508,-1.027 -0.508,-1.884 l 0,-1.572 7.11,0 z m -4.102,7.177 -0.65,0 0,-2.29 0.65,0 0,2.29 z m -0.66,1.579 c -0.59,0 -1.048,0.151 -1.377,0.455 -0.328,0.301 -0.493,0.721 -0.493,1.258 0,0.535 0.163,0.953 0.488,1.257 0.325,0.302 0.78,0.453 1.362,0.453 l 2.452,0 c 0.578,0 1.031,-0.151 1.36,-0.456 0.326,-0.305 0.49,-0.722 0.49,-1.254 0,-0.537 -0.165,-0.957 -0.495,-1.258 -0.332,-0.304 -0.792,-0.455 -1.385,-0.455 l -2.402,0 z m 0.152,-0.688 2.108,0 c 0.46,0 0.805,0.033 1.038,0.098 0.232,0.065 0.45,0.171 0.652,0.321 0.308,0.235 0.547,0.522 0.713,0.862 0.165,0.34 0.249,0.714 0.249,1.122 0,0.745 -0.232,1.331 -0.694,1.762 -0.462,0.43 -1.102,0.644 -1.918,0.644 l -2.178,0 c -0.384,0 -0.702,-0.031 -0.954,-0.093 -0.253,-0.061 -0.475,-0.16 -0.666,-0.296 -0.317,-0.225 -0.56,-0.514 -0.734,-0.866 -0.171,-0.351 -0.258,-0.735 -0.258,-1.151 0,-0.408 0.081,-0.78 0.246,-1.118 0.166,-0.341 0.404,-0.631 0.716,-0.876 0.181,-0.143 0.405,-0.246 0.666,-0.311 0.262,-0.065 0.6,-0.098 1.014,-0.098 z m 2.979,6.801 c -0.351,0 -0.638,0.112 -0.856,0.335 -0.22,0.223 -0.33,0.513 -0.33,0.872 0,0.427 0.1,0.755 0.3,0.983 0.2,0.229 0.488,0.342 0.867,0.342 0.341,0 0.62,-0.119 0.836,-0.355 0.217,-0.235 0.325,-0.539 0.325,-0.907 0,-0.362 -0.108,-0.663 -0.326,-0.907 -0.219,-0.241 -0.49,-0.363 -0.816,-0.363 z m -3.438,-0.312 c -0.453,0 -0.828,0.147 -1.126,0.442 -0.299,0.295 -0.447,0.653 -0.447,1.077 0,0.465 0.151,0.848 0.455,1.15 0.302,0.302 0.685,0.452 1.147,0.452 0.476,0 0.858,-0.142 1.148,-0.426 0.29,-0.283 0.435,-0.656 0.435,-1.123 0,-0.485 -0.143,-0.868 -0.432,-1.15 -0.288,-0.282 -0.681,-0.422 -1.18,-0.422 z m 1.93,0.37 c 0.165,-0.25 0.367,-0.44 0.602,-0.568 0.237,-0.128 0.503,-0.193 0.798,-0.193 0.509,0 0.949,0.19 1.322,0.57 0.372,0.378 0.558,0.835 0.558,1.37 0,0.557 -0.18,1.025 -0.541,1.405 -0.362,0.378 -0.792,0.568 -1.289,0.568 -0.326,0 -0.607,-0.065 -0.843,-0.193 -0.235,-0.129 -0.438,-0.327 -0.607,-0.597 -0.211,0.374 -0.465,0.652 -0.76,0.834 -0.295,0.181 -0.643,0.273 -1.043,0.273 -0.67,0 -1.223,-0.215 -1.658,-0.647 -0.435,-0.431 -0.652,-0.99 -0.652,-1.673 0,-0.622 0.218,-1.149 0.657,-1.58 0.438,-0.432 0.973,-0.647 1.605,-0.647 0.406,0 0.754,0.083 1.044,0.252 0.291,0.166 0.559,0.443 0.807,0.826 z"
       id="path5820"
       inkscape:connector-curvature="0"
       transform="translate(-1.0456387,-113.20335)" />
    <path
       inkscape:connector-curvature="0"
       id="path5722"
       d="m 381.72915,140.58564 1.213,0 c 0.024,0.792 0.249,1.4219 0.672,1.8898 0.426,0.4711 0.984,0.705 1.674,0.705 0.744,0 1.335,-0.2339 1.773,-0.6987 0.435,-0.4652 0.654,-1.0981 0.654,-1.8961 0,-1.158 -0.897,-2.037 -2.691,-2.628 -0.141,-0.0479 -0.246,-0.0811 -0.315,-0.1052 -0.939,-0.324 -1.614,-0.7319 -2.025,-1.2268 -0.415,-0.495 -0.621,-1.1401 -0.621,-1.9381 0,-1.0199 0.318,-1.8538 0.954,-2.5049 0.636,-0.6512 1.458,-0.9752 2.466,-0.9752 0.96,0 1.722,0.2971 2.286,0.8881 0.561,0.591 0.876,1.425 0.939,2.4959 l -1.188,0 c -0.063,-0.699 -0.273,-1.2359 -0.624,-1.6137 -0.351,-0.3781 -0.822,-0.5672 -1.413,-0.5672 -0.633,0 -1.152,0.2072 -1.551,0.621 -0.403,0.4111 -0.603,0.9392 -0.603,1.5781 0,0.333 0.06,0.6211 0.18,0.864 0.12,0.2429 0.312,0.4649 0.576,0.6658 0.27,0.1982 0.786,0.4201 1.548,0.6662 0.438,0.1409 0.771,0.2548 1.002,0.345 0.831,0.3208 1.43,0.7319 1.797,1.233 0.366,0.5009 0.549,1.158 0.549,1.9741 0,1.2419 -0.34,2.2439 -1.014,3.0027 -0.678,0.7591 -1.575,1.1373 -2.694,1.1373 -1.044,0 -1.89,-0.3601 -2.541,-1.0772 -0.651,-0.7169 -0.984,-1.6619 -1.003,-2.8349 z m 10.321,-3.4022 5.379,0 0,1.2663 -5.379,0 0,4.5539 5.379,0 0,1.239 -6.645,0 0,-12.7982 6.645,0 0,1.2571 -5.379,0 0,4.4819 z m 8.832,-4.4819 0,11.5411 -1.239,0 0,-12.7982 3.438,0 c 0.756,0 1.362,0.0573 1.824,0.1712 0.459,0.114 0.876,0.3031 1.251,0.567 0.51,0.3568 0.912,0.8339 1.209,1.434 0.297,0.597 0.444,1.23 0.444,1.8989 0,0.9902 -0.294,1.842 -0.882,2.556 -0.591,0.7169 -1.326,1.107 -2.211,1.1701 l 3.093,5.001 -1.494,0 -3.798,-6.1711 1.212,0 c 0.81,0 1.467,-0.237 1.974,-0.7109 0.507,-0.4739 0.762,-1.0859 0.762,-1.8301 0,-0.4501 -0.078,-0.8608 -0.234,-1.2299 -0.153,-0.3691 -0.384,-0.6899 -0.69,-0.9661 -0.252,-0.2279 -0.555,-0.39 -0.909,-0.4889 -0.354,-0.0961 -0.987,-0.1441 -1.896,-0.1441 l -1.854,0 z m 10.152,5.493 0,4.8272 1.767,0 c 1.038,0 1.803,-0.195 2.298,-0.5882 0.495,-0.3929 0.744,-0.9989 0.744,-1.8119 0,-0.8161 -0.252,-1.4222 -0.756,-1.8241 -0.504,-0.402 -1.266,-0.603 -2.286,-0.603 l -1.767,0 z m 0,-5.5289 0,4.308 0.756,0 c 1.242,0 2.112,-0.1712 2.607,-0.513 0.495,-0.345 0.744,-0.906 0.744,-1.6861 0,-0.7318 -0.24,-1.2659 -0.72,-1.6021 -0.483,-0.3387 -1.251,-0.5068 -2.304,-0.5068 l -1.083,0 z m -1.203,-1.2212 2.382,0 c 1.449,0 2.511,0.2733 3.192,0.8221 0.681,0.5491 1.02,1.4011 1.02,2.5619 0,0.5851 -0.114,1.0862 -0.342,1.5032 -0.231,0.417 -0.573,0.756 -1.029,1.0199 0.69,0.288 1.209,0.69 1.554,1.209 0.345,0.519 0.519,1.152 0.519,1.902 0,1.302 -0.36,2.2561 -1.077,2.865 -0.717,0.6089 -1.848,0.9151 -3.39,0.9151 l -2.829,0 0,-12.7982 z m 12.918,7.3831 0,1.1702 -4.122,0 0,-1.1702 4.122,0 z m 2.841,1.188 c 0,1.0621 0.273,1.887 0.819,2.4781 0.543,0.591 1.299,0.8881 2.265,0.8881 0.963,0 1.716,-0.2943 2.262,-0.8791 0.543,-0.585 0.816,-1.404 0.816,-2.4511 l 0,-4.4129 c 0,-1.0409 -0.273,-1.857 -0.822,-2.448 -0.549,-0.5879 -1.299,-0.8822 -2.256,-0.8822 -0.966,0 -1.722,0.2971 -2.265,0.8913 -0.546,0.5969 -0.819,1.4249 -0.819,2.4927 l 0,4.3231 z m -1.239,-0.2729 0,-3.7951 c 0,-0.828 0.06,-1.449 0.177,-1.8689 0.117,-0.4169 0.309,-0.8101 0.579,-1.1729 0.423,-0.555 0.939,-0.9842 1.551,-1.2841 0.612,-0.2971 1.284,-0.447 2.019,-0.447 1.341,0 2.397,0.4169 3.171,1.2481 0.774,0.8308 1.161,1.9828 1.161,3.4529 l 0,3.9208 c 0,0.6902 -0.057,1.2631 -0.168,1.7161 -0.111,0.4561 -0.288,0.8549 -0.534,1.1999 -0.405,0.5701 -0.924,1.008 -1.557,1.3201 -0.633,0.309 -1.323,0.4652 -2.073,0.4652 -0.735,0 -1.404,-0.1472 -2.013,-0.4442 -0.612,-0.2971 -1.134,-0.726 -1.575,-1.2869 -0.258,-0.3271 -0.444,-0.7291 -0.561,-1.1999 -0.117,-0.4712 -0.177,-1.0801 -0.177,-1.8241 z m 10.152,0.6151 1.275,0 c 0.048,0.8308 0.372,1.5389 0.975,2.1177 0.603,0.5792 1.305,0.8703 2.109,0.8703 0.861,0 1.59,-0.324 2.184,-0.972 0.594,-0.6452 0.891,-1.4463 0.891,-2.3942 0,-0.9601 -0.297,-1.7371 -0.891,-2.334 -0.594,-0.5939 -1.374,-0.891 -2.334,-0.891 -0.543,0 -1.035,0.1231 -1.476,0.366 -0.438,0.2429 -0.828,0.612 -1.167,1.11 l -0.969,-0.447 1.134,-6.3391 5.772,0 0,1.2571 -4.698,0 -0.642,3.5701 c 0.369,-0.264 0.732,-0.4562 1.092,-0.5761 0.363,-0.1199 0.753,-0.18 1.173,-0.18 1.248,0 2.271,0.423 3.069,1.266 0.795,0.843 1.194,1.9202 1.194,3.234 0,1.2422 -0.426,2.2981 -1.278,3.1712 -0.852,0.8728 -1.887,1.311 -3.099,1.311 -1.152,0 -2.139,-0.3872 -2.952,-1.1642 -0.813,-0.777 -1.269,-1.77 -1.362,-2.9758 z"
       style="fill:none;stroke:#000000;stroke-width:0.14173229;stroke-miterlimit:4;stroke-opacity:1;stroke-dasharray:none;display:inline"
       transform="translate(4.6694225,1.0161295)" />
    <path
       inkscape:connector-curvature="0"
       id="path5810"
       d="m 432.72776,350.73123 0,1.212 c -0.792,0.024 -1.4218,0.249 -1.8898,0.672 -0.4711,0.426 -0.705,0.984 -0.705,1.674 0,0.744 0.2339,1.335 0.6988,1.773 0.4651,0.435 1.0981,0.654 1.896,0.654 1.158,0 2.037,-0.897 2.628,-2.691 0.0479,-0.141 0.0811,-0.246 0.1052,-0.315 0.324,-0.939 0.7319,-1.614 1.2269,-2.025 0.4949,-0.414 1.14,-0.621 1.938,-0.621 1.0199,0 1.8538,0.318 2.505,0.954 0.6511,0.636 0.9751,1.458 0.9751,2.466 0,0.96 -0.2971,1.722 -0.8881,2.286 -0.591,0.561 -1.425,0.876 -2.4959,0.939 l 0,-1.188 c 0.699,-0.063 1.2359,-0.273 1.6138,-0.624 0.3781,-0.351 0.5672,-0.822 0.5672,-1.413 0,-0.633 -0.2073,-1.152 -0.6211,-1.551 -0.4111,-0.402 -0.9391,-0.603 -1.578,-0.603 -0.3331,0 -0.6211,0.06 -0.8641,0.18 -0.2429,0.12 -0.4648,0.312 -0.6658,0.576 -0.1982,0.27 -0.4201,0.786 -0.6661,1.548 -0.141,0.438 -0.2549,0.771 -0.345,1.002 -0.3209,0.831 -0.7319,1.431 -1.2331,1.797 -0.5008,0.366 -1.158,0.549 -1.9741,0.549 -1.2418,0 -2.2438,-0.339 -3.0027,-1.014 -0.7591,-0.678 -1.1373,-1.575 -1.1373,-2.694 0,-1.044 0.3601,-1.89 1.0772,-2.541 0.7169,-0.651 1.662,-0.984 2.8349,-1.002 z m 3.4022,10.32 0,5.379 -1.2662,0 0,-5.379 -4.5539,0 0,5.379 -1.239,0 0,-6.645 12.7981,0 0,6.645 -1.2571,0 0,-5.379 -4.4819,0 z m 4.4819,8.832 -11.541,0 0,-1.239 12.7981,0 0,3.438 c 0,0.756 -0.0572,1.362 -0.1712,1.824 -0.1139,0.459 -0.303,0.876 -0.5669,1.251 -0.3569,0.51 -0.834,0.912 -1.4341,1.209 -0.5969,0.297 -1.2299,0.444 -1.8989,0.444 -0.9902,0 -1.842,-0.294 -2.556,-0.882 -0.7169,-0.591 -1.107,-1.326 -1.1701,-2.211 l -5.0009,3.093 0,-1.494 6.171,-3.798 0,1.212 c 0,0.81 0.237,1.467 0.7109,1.974 0.474,0.507 1.086,0.762 1.8301,0.762 0.4501,0 0.8608,-0.078 1.2299,-0.234 0.3691,-0.153 0.69,-0.384 0.9661,-0.69 0.2279,-0.252 0.39,-0.555 0.4889,-0.909 0.0962,-0.354 0.1441,-0.987 0.1441,-1.896 l 0,-1.854 z m -5.493,10.152 -4.8272,0 0,1.767 c 0,1.038 0.1951,1.803 0.5882,2.298 0.3929,0.495 0.999,0.744 1.8119,0.744 0.8161,0 1.4222,-0.252 1.8241,-0.756 0.402,-0.504 0.603,-1.266 0.603,-2.286 l 0,-1.767 z m 5.5289,0 -4.308,0 0,0.756 c 0,1.242 0.1712,2.112 0.513,2.607 0.345,0.495 0.906,0.744 1.6861,0.744 0.7319,0 1.2659,-0.24 1.6021,-0.72 0.3387,-0.483 0.5068,-1.251 0.5068,-2.304 l 0,-1.083 z m 1.2212,-1.203 0,2.382 c 0,1.449 -0.2732,2.511 -0.822,3.192 -0.5491,0.681 -1.4012,1.02 -2.562,1.02 -0.585,0 -1.0862,-0.114 -1.5032,-0.342 -0.417,-0.231 -0.756,-0.573 -1.0199,-1.029 -0.288,0.69 -0.6899,1.209 -1.209,1.554 -0.519,0.345 -1.152,0.519 -1.902,0.519 -1.302,0 -2.2561,-0.36 -2.865,-1.077 -0.6089,-0.717 -0.915,-1.848 -0.915,-3.39 l 0,-2.829 12.7981,0 z m -7.3831,12.918 -1.1702,0 0,-4.122 1.1702,0 0,4.122 z m -1.188,2.841 c -1.0621,0 -1.887,0.273 -2.478,0.819 -0.5911,0.543 -0.8881,1.299 -0.8881,2.265 0,0.963 0.2942,1.716 0.879,2.262 0.5851,0.543 1.404,0.816 2.4511,0.816 l 4.413,0 c 1.0409,0 1.857,-0.273 2.448,-0.822 0.5879,-0.549 0.8821,-1.299 0.8821,-2.256 0,-0.966 -0.2971,-1.722 -0.8912,-2.265 -0.597,-0.546 -1.425,-0.819 -2.4928,-0.819 l -4.3231,0 z m 0.273,-1.239 3.795,0 c 0.828,0 1.4491,0.06 1.8689,0.177 0.4169,0.117 0.8101,0.309 1.173,0.579 0.555,0.423 0.9842,0.939 1.284,1.551 0.2972,0.612 0.4471,1.284 0.4471,2.019 0,1.341 -0.417,2.397 -1.2481,3.171 -0.8309,0.774 -1.9828,1.161 -3.4529,1.161 l -3.9209,0 c -0.6902,0 -1.2631,-0.057 -1.7161,-0.168 -0.4561,-0.111 -0.8549,-0.288 -1.1999,-0.534 -0.5701,-0.405 -1.008,-0.924 -1.3201,-1.557 -0.309,-0.633 -0.4652,-1.323 -0.4652,-2.073 0,-0.735 0.1472,-1.404 0.4442,-2.013 0.2971,-0.612 0.726,-1.134 1.287,-1.575 0.3271,-0.258 0.729,-0.444 1.1999,-0.561 0.4711,-0.117 1.08,-0.177 1.8241,-0.177 z m -4.5,18.519 0,-7.935 1.239,0 4.305,4.536 c 0.849,0.897 1.521,1.488 2.0128,1.779 0.4922,0.291 1.0021,0.435 1.5302,0.435 0.8011,0 1.4729,-0.261 2.016,-0.786 0.5431,-0.525 0.813,-1.191 0.813,-2.001 0,-0.831 -0.2761,-1.497 -0.8311,-1.995 -0.5548,-0.498 -1.2898,-0.747 -2.2108,-0.747 -0.045,0 -0.108,0.003 -0.1831,0.009 -0.0779,0.006 -0.1349,0.009 -0.1769,0.009 l 0,-1.239 0.1919,0 c 1.2901,0 2.34,0.378 3.1499,1.137 0.807,0.759 1.2121,1.737 1.2121,2.931 0,1.086 -0.3901,2.007 -1.173,2.766 -0.7829,0.759 -1.749,1.137 -2.895,1.137 -0.6631,0 -1.2991,-0.159 -1.9049,-0.48 -0.6061,-0.318 -1.2302,-0.822 -1.8751,-1.515 l -3.981,-4.314 0,6.273 -1.239,0 z m 6.048,3.456 -4.8272,0 0,1.767 c 0,1.038 0.1951,1.803 0.5882,2.298 0.3929,0.495 0.999,0.744 1.8119,0.744 0.8161,0 1.4222,-0.252 1.8241,-0.756 0.402,-0.504 0.603,-1.266 0.603,-2.286 l 0,-1.767 z m 5.5289,0 -4.308,0 0,0.756 c 0,1.242 0.1712,2.112 0.513,2.607 0.345,0.495 0.906,0.744 1.6861,0.744 0.7319,0 1.2659,-0.24 1.6021,-0.72 0.3387,-0.483 0.5068,-1.251 0.5068,-2.304 l 0,-1.083 z m 1.2212,-1.203 0,2.382 c 0,1.449 -0.2732,2.511 -0.822,3.192 -0.5491,0.681 -1.4012,1.02 -2.562,1.02 -0.585,0 -1.0862,-0.114 -1.5032,-0.342 -0.417,-0.231 -0.756,-0.573 -1.0199,-1.029 -0.288,0.69 -0.6899,1.209 -1.209,1.554 -0.519,0.345 -1.152,0.519 -1.902,0.519 -1.302,0 -2.2561,-0.36 -2.865,-1.077 -0.6089,-0.717 -0.915,-1.848 -0.915,-3.39 l 0,-2.829 12.7981,0 z"
       style="fill:none;stroke:#000000;stroke-width:0.14173229;stroke-miterlimit:4;stroke-opacity:1;stroke-dasharray:none;display:inline"
       transform="translate(-1.222852,0)" />
    <path
       inkscape:connector-curvature="0"
       id="path5764"
       d="m 560.28656,516.00123 0,1.212 c -0.792,0.024 -1.422,0.249 -1.89,0.672 -0.471,0.426 -0.705,0.984 -0.705,1.674 0,0.744 0.234,1.335 0.699,1.773 0.465,0.435 1.098,0.654 1.896,0.654 1.158,0 2.037,-0.897 2.628,-2.691 0.048,-0.141 0.081,-0.246 0.105,-0.315 0.324,-0.939 0.732,-1.614 1.227,-2.025 0.495,-0.414 1.14,-0.621 1.938,-0.621 1.02,0 1.854,0.318 2.505,0.954 0.651,0.636 0.975,1.458 0.975,2.466 0,0.96 -0.297,1.722 -0.888,2.286 -0.591,0.561 -1.425,0.876 -2.496,0.939 l 0,-1.188 c 0.7,-0.063 1.236,-0.273 1.614,-0.624 0.378,-0.351 0.567,-0.822 0.567,-1.413 0,-0.633 -0.207,-1.152 -0.621,-1.551 -0.411,-0.402 -0.939,-0.603 -1.578,-0.603 -0.333,0 -0.621,0.06 -0.864,0.18 -0.243,0.12 -0.465,0.312 -0.666,0.576 -0.198,0.27 -0.42,0.786 -0.666,1.548 -0.141,0.438 -0.255,0.771 -0.345,1.002 -0.321,0.831 -0.732,1.431 -1.233,1.797 -0.501,0.366 -1.158,0.549 -1.974,0.549 -1.242,0 -2.244,-0.339 -3.003,-1.014 -0.759,-0.678 -1.137,-1.575 -1.137,-2.694 0,-1.044 0.36,-1.89 1.077,-2.541 0.717,-0.651 1.662,-0.984 2.835,-1.002 z m 3.402,10.32 0,5.379 -1.266,0 0,-5.379 -4.554,0 0,5.379 -1.239,0 0,-6.645 12.798,0 0,6.645 -1.257,0 0,-5.379 -4.482,0 z m 4.482,8.832 -11.541,0 0,-1.239 12.798,0 0,3.438 c 0,0.756 -0.057,1.362 -0.171,1.824 -0.114,0.459 -0.303,0.876 -0.567,1.251 -0.357,0.51 -0.834,0.912 -1.434,1.209 -0.597,0.297 -1.23,0.444 -1.899,0.444 -0.99,0 -1.842,-0.294 -2.556,-0.882 -0.716,-0.591 -1.107,-1.326 -1.17,-2.211 l -5.001,3.093 0,-1.494 6.171,-3.798 0,1.212 c 0,0.81 0.237,1.467 0.711,1.974 0.474,0.507 1.086,0.762 1.83,0.762 0.45,0 0.861,-0.078 1.23,-0.234 0.369,-0.153 0.69,-0.384 0.966,-0.69 0.228,-0.252 0.39,-0.555 0.489,-0.909 0.096,-0.354 0.144,-0.987 0.144,-1.896 l 0,-1.854 z m -5.493,10.152 -4.827,0 0,1.767 c 0,1.038 0.195,1.803 0.588,2.298 0.393,0.495 0.999,0.744 1.812,0.744 0.816,0 1.422,-0.252 1.824,-0.756 0.402,-0.504 0.603,-1.266 0.603,-2.286 l 0,-1.767 z m 5.529,0 -4.308,0 0,0.756 c 0,1.242 0.171,2.112 0.513,2.607 0.345,0.495 0.906,0.744 1.686,0.744 0.732,0 1.266,-0.24 1.602,-0.72 0.339,-0.483 0.507,-1.251 0.507,-2.304 l 0,-1.083 z m 1.221,-1.203 0,2.382 c 0,1.449 -0.273,2.511 -0.822,3.192 -0.549,0.681 -1.401,1.02 -2.562,1.02 -0.585,0 -1.086,-0.114 -1.503,-0.342 -0.417,-0.231 -0.756,-0.573 -1.02,-1.029 -0.288,0.69 -0.69,1.209 -1.209,1.554 -0.519,0.345 -1.152,0.519 -1.902,0.519 -1.302,0 -2.256,-0.36 -2.865,-1.077 -0.609,-0.717 -0.915,-1.848 -0.915,-3.39 l 0,-2.829 12.798,0 z m -7.383,12.918 -1.17,0 0,-4.122 1.17,0 0,4.122 z m -1.188,2.841 c -1.062,0 -1.887,0.273 -2.478,0.819 -0.591,0.543 -0.888,1.299 -0.888,2.265 0,0.963 0.294,1.716 0.879,2.262 0.585,0.543 1.404,0.816 2.451,0.816 l 4.413,0 c 1.041,0 1.857,-0.273 2.448,-0.822 0.588,-0.549 0.882,-1.299 0.882,-2.256 0,-0.966 -0.297,-1.722 -0.891,-2.265 -0.597,-0.546 -1.425,-0.819 -2.493,-0.819 l -4.323,0 z m 0.273,-1.239 3.795,0 c 0.828,0 1.449,0.06 1.869,0.177 0.417,0.117 0.81,0.309 1.173,0.579 0.555,0.423 0.984,0.939 1.284,1.551 0.297,0.612 0.447,1.284 0.447,2.019 0,1.341 -0.417,2.397 -1.248,3.171 -0.831,0.774 -1.983,1.161 -3.453,1.161 l -3.921,0 c -0.69,0 -1.263,-0.057 -1.716,-0.168 -0.456,-0.111 -0.855,-0.288 -1.2,-0.534 -0.57,-0.405 -1.008,-0.924 -1.32,-1.557 -0.309,-0.633 -0.465,-1.323 -0.465,-2.073 0,-0.735 0.147,-1.404 0.444,-2.013 0.297,-0.612 0.726,-1.134 1.287,-1.575 0.327,-0.258 0.729,-0.444 1.2,-0.561 0.471,-0.117 1.08,-0.177 1.824,-0.177 z m -4.5,18.519 0,-7.935 1.239,0 4.305,4.536 c 0.849,0.897 1.521,1.488 2.013,1.779 0.492,0.291 1.002,0.435 1.53,0.435 0.801,0 1.473,-0.261 2.016,-0.786 0.543,-0.525 0.813,-1.191 0.813,-2.001 0,-0.831 -0.276,-1.497 -0.831,-1.995 -0.555,-0.498 -1.29,-0.747 -2.211,-0.747 -0.045,0 -0.108,0.003 -0.183,0.009 -0.078,0.006 -0.135,0.009 -0.176,0.009 l 0,-1.239 0.191,0 c 1.29,0 2.34,0.378 3.15,1.137 0.807,0.759 1.212,1.737 1.212,2.931 0,1.086 -0.39,2.007 -1.173,2.766 -0.783,0.759 -1.749,1.137 -2.895,1.137 -0.663,0 -1.299,-0.159 -1.905,-0.48 -0.606,-0.318 -1.23,-0.822 -1.875,-1.515 l -3.981,-4.314 0,6.273 -1.239,0 z m 0,1.944 0,-1.326 12.798,4.966 0,1.511 -12.798,4.95 0,-1.344 4.017,-1.53 0,-5.697 -4.017,-1.53 z m 5.169,6.786 6.426,-2.426 -6.426,-2.392 0,4.818 z"
       style="fill:none;stroke:#000000;stroke-width:0.14173229;stroke-miterlimit:4;stroke-opacity:1;stroke-dasharray:none;display:inline"
       transform="translate(2.5511863,0)" />
    <path
       inkscape:connector-curvature="0"
       id="path5684"
       d="m 140.70023,411.84143 0,3.218 1.179,0 c 0.691,0 1.201,-0.13 1.531,-0.392 0.331,-0.262 0.496,-0.666 0.496,-1.208 0,-0.544 -0.167,-0.948 -0.504,-1.216 -0.335,-0.268 -0.843,-0.402 -1.523,-0.402 l -1.179,0 z m 0,-3.686 0,2.872 0.504,0 c 0.828,0 1.408,-0.114 1.738,-0.342 0.331,-0.23 0.496,-0.604 0.496,-1.124 0,-0.488 -0.159,-0.844 -0.479,-1.068 -0.323,-0.226 -0.834,-0.338 -1.537,-0.338 l -0.722,0 z m -0.801,-0.814 1.588,0 c 0.966,0 1.673,0.182 2.127,0.548 0.455,0.366 0.681,0.934 0.681,1.708 0,0.39 -0.076,0.724 -0.228,1.002 -0.155,0.278 -0.383,0.504 -0.686,0.68 0.459,0.192 0.805,0.46 1.035,0.806 0.231,0.346 0.346,0.768 0.346,1.268 0,0.868 -0.24,1.504 -0.717,1.91 -0.478,0.406 -1.232,0.61 -2.261,0.61 l -1.885,0 0,-8.532 z m 5.899,8.532 -0.884,0 3.31,-8.532 1.008,0 3.3,8.532 -0.896,0 -1.02,-2.678 -3.798,0 -1.02,2.678 z m 4.524,-3.446 -1.618,-4.284 -1.594,4.284 3.212,0 z m 4.242,3.446 -0.838,0 0,-7.694 -1.706,0 0,-0.838 4.25,0 0,0.838 -1.706,0 0,7.694 z m 4.394,0 -0.838,0 0,-7.694 -1.706,0 0,-0.838 4.25,0 0,0.838 -1.706,0 0,7.694 z m 3.416,-4.706 3.586,0 0,0.844 -3.586,0 0,3.036 3.586,0 0,0.826 -4.43,0 0,-8.532 4.43,0 0,0.838 -3.586,0 0,2.988 z m 5.888,-2.988 0,7.694 -0.826,0 0,-8.532 2.292,0 c 0.504,0 0.908,0.038 1.216,0.114 0.306,0.076 0.584,0.202 0.834,0.378 0.34,0.238 0.608,0.556 0.806,0.956 0.198,0.398 0.296,0.82 0.296,1.266 0,0.66 -0.196,1.228 -0.588,1.704 -0.394,0.478 -0.884,0.738 -1.474,0.78 l 2.062,3.334 -0.996,0 -2.532,-4.114 0.808,0 c 0.54,0 0.978,-0.158 1.316,-0.474 0.338,-0.316 0.508,-0.724 0.508,-1.22 0,-0.3 -0.052,-0.574 -0.156,-0.82 -0.102,-0.246 -0.256,-0.46 -0.46,-0.644 -0.168,-0.152 -0.37,-0.26 -0.606,-0.326 -0.236,-0.064 -0.658,-0.096 -1.264,-0.096 l -1.236,0 z m 8.436,4.558 0,3.136 -0.826,0 0,-3.146 -2.724,-5.386 0.962,0 2.178,4.43 2.2,-4.43 0.934,0 -2.724,5.396 z m 7.466,-0.896 0,3.218 1.178,0 c 0.692,0 1.202,-0.13 1.532,-0.392 0.33,-0.262 0.496,-0.666 0.496,-1.208 0,-0.544 -0.168,-0.948 -0.504,-1.216 -0.336,-0.268 -0.844,-0.402 -1.524,-0.402 l -1.178,0 z m 0,-3.686 0,2.872 0.504,0 c 0.828,0 1.408,-0.114 1.738,-0.342 0.33,-0.23 0.496,-0.604 0.496,-1.124 0,-0.488 -0.16,-0.844 -0.48,-1.068 -0.322,-0.226 -0.834,-0.338 -1.536,-0.338 l -0.722,0 z m -0.802,-0.814 1.588,0 c 0.966,0 1.674,0.182 2.128,0.548 0.454,0.366 0.68,0.934 0.68,1.708 0,0.39 -0.076,0.724 -0.228,1.002 -0.154,0.278 -0.382,0.504 -0.686,0.68 0.46,0.192 0.806,0.46 1.036,0.806 0.23,0.346 0.346,0.768 0.346,1.268 0,0.868 -0.24,1.504 -0.718,1.91 -0.478,0.406 -1.232,0.61 -2.26,0.61 l -1.886,0 0,-8.532 z m 6.55,4.226 c 0,1.038 0.338,1.91 1.014,2.614 0.676,0.702 1.51,1.054 2.502,1.054 0.968,0 1.786,-0.356 2.454,-1.066 0.668,-0.712 1.002,-1.588 1.002,-2.626 0,-0.97 -0.344,-1.804 -1.032,-2.506 -0.686,-0.702 -1.514,-1.052 -2.484,-1.052 -0.394,0 -0.774,0.068 -1.138,0.202 -0.366,0.136 -0.702,0.334 -1.012,0.596 -0.406,0.342 -0.726,0.762 -0.958,1.26 -0.232,0.496 -0.348,1.004 -0.348,1.524 z m -0.878,-0.012 c 0,-0.594 0.114,-1.162 0.342,-1.7 0.23,-0.54 0.56,-1.022 0.994,-1.448 0.418,-0.41 0.878,-0.718 1.38,-0.926 0.502,-0.206 1.046,-0.31 1.632,-0.31 0.596,0 1.15,0.104 1.66,0.314 0.51,0.208 0.976,0.52 1.398,0.934 0.434,0.426 0.76,0.902 0.978,1.43 0.218,0.528 0.328,1.096 0.328,1.706 0,0.604 -0.094,1.16 -0.282,1.666 -0.186,0.506 -0.468,0.966 -0.842,1.38 -0.434,0.478 -0.924,0.836 -1.472,1.078 -0.546,0.242 -1.14,0.364 -1.78,0.364 -1.226,0 -2.256,-0.43 -3.088,-1.292 -0.832,-0.862 -1.248,-1.928 -1.248,-3.196 z m 9.762,4.318 -1.032,0 2.966,-4.296 -2.894,-4.236 1.042,0 2.344,3.54 2.336,-3.54 1.032,0 -2.888,4.236 2.958,4.296 -1.054,0 -2.384,-3.622 -2.426,3.622 z"
       style="fill:none;stroke:#000000;stroke-width:0.14173229;stroke-miterlimit:4;stroke-opacity:1;stroke-dasharray:none;display:inline"
       transform="translate(-1.3276543,1.6066518)" />
    <path
       inkscape:connector-curvature="0"
       id="path5678"
       d="m 267.82123,334.92643 0,164.579 -194.646002,0 0,-164.579 194.646002,0 z"
       style="fill:none;stroke:#000000;stroke-width:0.14173229;stroke-miterlimit:4;stroke-opacity:1;stroke-dasharray:none;display:inline"
       transform="translate(-1.3276543,1.6066518)" />
    <path
       inkscape:connector-curvature="0"
       id="path5686"
       d="m 80.177228,611.46444 -0.884,0 3.31,-8.532 1.008,0 3.3,8.532 -0.896,0 -1.02,-2.678 -3.798,0 -1.02,2.678 z m 4.524,-3.446 -1.618,-4.285 -1.594,4.285 3.212,0 z m 3.556,-4.249 0,7.695 -0.826,0 0,-8.532 2.292,0 c 0.504,0 0.908,0.038 1.216,0.114 0.306,0.076 0.584,0.202 0.834,0.378 0.34,0.238 0.608,0.556 0.806,0.956 0.198,0.398 0.296,0.82 0.296,1.266 0,0.66 -0.196,1.228 -0.588,1.704 -0.394,0.478 -0.884,0.738 -1.474,0.779 l 2.062,3.335 -0.996,0 -2.532,-4.114 0.808,0 c 0.54,0 0.978,-0.159 1.316,-0.474 0.338,-0.316 0.508,-0.724 0.508,-1.22 0,-0.3 -0.052,-0.574 -0.156,-0.82 -0.102,-0.246 -0.256,-0.46 -0.46,-0.644 -0.168,-0.152 -0.37,-0.26 -0.606,-0.326 -0.236,-0.064 -0.658,-0.097 -1.264,-0.097 l -1.236,0 z m 6.792,-0.023 0,6.916 1.74,0 c 1.086,0 1.922,-0.304 2.508,-0.914 0.586,-0.611 0.880002,-1.475 0.880002,-2.59 0,-0.56 -0.1,-1.076 -0.298002,-1.548 -0.2,-0.472 -0.486,-0.87 -0.856,-1.19 -0.278,-0.242 -0.588,-0.416 -0.932,-0.518 -0.344,-0.104 -0.844,-0.156 -1.5,-0.156 l -1.542,0 z m -0.826,-0.814 2.426,0 c 0.668,0 1.23,0.066 1.684,0.2 0.456,0.132 0.858,0.344 1.204,0.637 0.490002,0.411 0.868002,0.913 1.138002,1.507 0.27,0.594 0.404,1.228 0.404,1.904 0,0.754 -0.148,1.44 -0.446,2.06 -0.296,0.619 -0.716002,1.123 -1.260002,1.514 -0.358,0.254 -0.748,0.435 -1.166,0.545 -0.418,0.111 -1.062,0.165 -1.934,0.165 l -2.05,0 0,-8.532 z m 7.874002,0 0.838,0 0,5.396 c 0,0.418 0.016,0.732 0.05,0.938 0.034,0.208 0.088,0.39 0.166,0.55 0.154,0.326 0.376,0.579 0.672,0.761 0.294,0.185 0.628,0.277 1,0.277 0.644,0 1.12,-0.22 1.43,-0.66 0.308,-0.438 0.462,-1.12 0.462,-2.042 l 0,-5.22 0.825,0 0,5.426 c 0,1.105 -0.219,1.93 -0.659,2.473 -0.438,0.543 -1.107,0.815 -2,0.815 -0.958,0 -1.66,-0.266 -2.11,-0.798 -0.45,-0.53 -0.674,-1.36 -0.674,-2.49 l 0,-5.426 z m 7.736,8.532 -0.838,0 0,-8.532 0.838,0 0,8.532 z m 7.253,-1.02 -0.1,-7.512 0.833,0 0,8.532 -1.008,0 -4.682,-7.524 0.093,7.524 -0.826,0 0,-8.532 1.008,0 4.682,7.512 z m 2.782,-3.286 c 0,1.038 0.339,1.91 1.014,2.614 0.676,0.702 1.51,1.054 2.502,1.054 0.969,0 1.786,-0.356 2.454,-1.066 0.669,-0.712 1.002,-1.588 1.002,-2.626 0,-0.97 -0.344,-1.804 -1.032,-2.506 -0.686,-0.702 -1.514,-1.052 -2.484,-1.052 -0.394,0 -0.774,0.068 -1.137,0.202 -0.367,0.136 -0.703,0.334 -1.012,0.596 -0.407,0.342 -0.727,0.762 -0.959,1.26 -0.231,0.496 -0.348,1.004 -0.348,1.524 z m -0.877,-0.012 c 0,-0.594 0.113,-1.162 0.341,-1.7 0.231,-0.54 0.56,-1.022 0.994,-1.448 0.419,-0.41 0.878,-0.718 1.38,-0.926 0.502,-0.206 1.046,-0.31 1.633,-0.31 0.595,0 1.15,0.104 1.659,0.314 0.51,0.208 0.976,0.52 1.398,0.934 0.434,0.426 0.761,0.902 0.978,1.43 0.218,0.527 0.328,1.096 0.328,1.706 0,0.604 -0.094,1.16 -0.282,1.665 -0.186,0.506 -0.468,0.967 -0.841,1.381 -0.435,0.478 -0.925,0.836 -1.472,1.078 -0.546,0.242 -1.141,0.364 -1.781,0.364 -1.226,0 -2.255,-0.43 -3.087,-1.292 -0.833,-0.862 -1.248,-1.928 -1.248,-3.196 z"
       style="fill:none;stroke:#000000;stroke-width:0.14173229;stroke-miterlimit:4;stroke-opacity:1;stroke-dasharray:none;display:inline"
       transform="translate(-1.3276543,1.6066518)" />
    <path
       inkscape:connector-curvature="0"
       id="path5682"
       d="m 56.659228,283.99543 1.212,0 c 0.024,0.792 0.249,1.422 0.672,1.89 0.426,0.471 0.984,0.705 1.674,0.705 0.744,0 1.335,-0.234 1.773,-0.699 0.435,-0.465 0.654,-1.098 0.654,-1.896 0,-1.158 -0.897,-2.037 -2.691,-2.628 -0.141,-0.048 -0.246,-0.081 -0.315,-0.105 -0.939,-0.324 -1.614,-0.732 -2.025,-1.227 -0.414,-0.495 -0.621,-1.14 -0.621,-1.938 0,-1.02 0.318,-1.854 0.954,-2.505 0.636,-0.651 1.458,-0.975 2.466,-0.975 0.96,0 1.722,0.297 2.286,0.888 0.561,0.591 0.876,1.425 0.939,2.496 l -1.188,0 c -0.063,-0.699 -0.273,-1.236 -0.624,-1.614 -0.351,-0.378 -0.822,-0.567 -1.413,-0.567 -0.633,0 -1.152,0.207 -1.551,0.621 -0.402,0.411 -0.603,0.939 -0.603,1.578 0,0.333 0.06,0.621 0.18,0.864 0.12,0.243 0.312,0.465 0.576,0.666 0.27,0.198 0.786,0.42 1.548,0.666 0.438,0.141 0.771,0.255 1.002,0.345 0.831,0.321 1.431,0.732 1.797,1.233 0.366,0.501 0.549,1.158 0.549,1.974 0,1.242 -0.339,2.244 -1.014,3.003 -0.678,0.759 -1.575,1.137 -2.694,1.137 -1.044,0 -1.89,-0.36 -2.541,-1.077 -0.651,-0.717 -0.984,-1.662 -1.002,-2.835 z m 10.32,-3.402 5.379,0 0,1.266 -5.379,0 0,4.554 5.379,0 0,1.239 -6.645,0 0,-12.798 6.645,0 0,1.257 -5.379,0 0,4.482 z m 8.832,-4.482 0,11.541 -1.239,0 0,-12.798 3.438,0 c 0.756,0 1.362,0.057 1.824,0.171 0.459,0.114 0.876,0.303 1.251,0.567 0.51,0.357 0.912,0.834 1.209,1.434 0.297,0.597 0.444,1.23 0.444,1.899 0,0.99 -0.294,1.842 -0.882,2.556 -0.591,0.717 -1.326,1.107 -2.211,1.17 l 3.093,5.001 -1.494,0 -3.798,-6.171 1.212,0 c 0.81,0 1.467,-0.237 1.974,-0.711 0.507,-0.474 0.762,-1.086 0.762,-1.83 0,-0.45 -0.078,-0.861 -0.234,-1.23 -0.153,-0.369 -0.384,-0.69 -0.69,-0.966 -0.252,-0.228 -0.555,-0.39 -0.909,-0.489 -0.354,-0.096 -0.987,-0.144 -1.896,-0.144 l -1.854,0 z m 10.152,5.493 0,4.827 1.767,0 c 1.038,0 1.803,-0.195 2.298,-0.588 0.495,-0.393 0.744,-0.999 0.744,-1.812 0,-0.816 -0.252,-1.422 -0.756,-1.824 -0.504,-0.402 -1.266,-0.603 -2.286,-0.603 l -1.767,0 z m 0,-5.529 0,4.308 0.756,0 c 1.242,0 2.112,-0.171 2.607,-0.513 0.495,-0.345 0.744,-0.906 0.744,-1.686 0,-0.732 -0.24,-1.266 -0.72,-1.602 -0.483,-0.339 -1.251,-0.507 -2.304,-0.507 l -1.083,0 z m -1.203,-1.221 2.382,0 c 1.449,0 2.511,0.273 3.192,0.822 0.681,0.549 1.02,1.401 1.02,2.562 0,0.585 -0.114,1.086 -0.342,1.503 -0.231,0.417 -0.573,0.756 -1.029,1.02 0.69,0.288 1.209,0.69 1.554,1.209 0.345,0.519 0.519,1.152 0.519,1.902 0,1.302 -0.36,2.256 -1.077,2.865 -0.717,0.609 -1.848,0.915 -3.39,0.915 l -2.829,0 0,-12.798 z m 12.918,7.383 0,1.17 -4.122,0 0,-1.17 4.122,0 z m 2.841002,1.188 c 0,1.062 0.273,1.887 0.819,2.478 0.543,0.591 1.299,0.888 2.265,0.888 0.963,0 1.716,-0.294 2.262,-0.879 0.543,-0.585 0.816,-1.404 0.816,-2.451 l 0,-4.413 c 0,-1.041 -0.273,-1.857 -0.822,-2.448 -0.549,-0.588 -1.299,-0.882 -2.256,-0.882 -0.966,0 -1.722,0.297 -2.265,0.891 -0.546,0.597 -0.819,1.425 -0.819,2.493 l 0,4.323 z m -1.239002,-0.273 0,-3.795 c 0,-0.828 0.06,-1.449 0.177,-1.869 0.117,-0.417 0.309,-0.81 0.579002,-1.173 0.423,-0.555 0.939,-0.984 1.551,-1.284 0.612,-0.297 1.284,-0.447 2.019,-0.447 1.341,0 2.397,0.417 3.171,1.248 0.774,0.831 1.161,1.983 1.161,3.453 l 0,3.921 c 0,0.69 -0.057,1.263 -0.168,1.716 -0.111,0.456 -0.288,0.855 -0.534,1.2 -0.405,0.57 -0.924,1.008 -1.557,1.32 -0.633,0.309 -1.323,0.465 -2.073,0.465 -0.735,0 -1.404,-0.147 -2.013,-0.444 -0.612,-0.297 -1.134,-0.726 -1.575,-1.287 -0.258002,-0.327 -0.444002,-0.729 -0.561002,-1.2 -0.117,-0.471 -0.177,-1.08 -0.177,-1.824 z m 15.354002,4.5 -1.335,0 0,-11.7 -2.232,0 0,-1.098 3.567,0 0,12.798 z"
       style="fill:none;stroke:#000000;stroke-width:0.14173229;stroke-miterlimit:4;stroke-opacity:1;stroke-dasharray:none;display:inline"
       transform="translate(-1.3276543,1.6066518)" />
  </g>
  <g
     inkscape:groupmode="layer"
     id="layer2"
     inkscape:label="Snijden"
     style="display:inline"
     sodipodi:insensitive="true">
    <g
       style="fill-rule:evenodd;display:inline"
       id="g6756"
       transform="translate(-1.222852,0)">
      <path
         inkscape:connector-curvature="0"
         id="path5770"
         d="m 360.45226,388.60123 0,-28.347 -8.5039,0 0,28.347 8.5039,0 z"
         style="fill:none;stroke:#ff0000;stroke-width:0.14173229;stroke-miterlimit:4;stroke-opacity:1;stroke-dasharray:none" />
      <path
         inkscape:connector-curvature="0"
         id="path5772"
         d="m 360.45226,331.90823 0,-28.3465 -8.5039,0 0,28.3465 8.5039,0 z"
         style="fill:none;stroke:#ff0000;stroke-width:0.14173229;stroke-miterlimit:4;stroke-opacity:1;stroke-dasharray:none" />
      <path
         inkscape:connector-curvature="0"
         id="path5774"
         d="m 360.59406,346.08123 c 0,-2.419 -1.9741,-4.394 -4.3937,-4.394 -2.4197,0 -4.3938,1.975 -4.3938,4.394 0,2.42 1.9741,4.394 4.3938,4.394 2.4196,0 4.3937,-1.974 4.3937,-4.394 z"
         style="fill:none;stroke:#ff0000;stroke-width:0.14173229;stroke-miterlimit:4;stroke-opacity:1;stroke-dasharray:none" />
      <path
         inkscape:connector-curvature="0"
         id="path5776"
         d="m 361.16096,467.97123 0,119.055 62.3622,0 0,-119.055 -62.3622,0 z"
         style="fill:none;stroke:#ff0000;stroke-width:0.14173229;stroke-miterlimit:4;stroke-opacity:1;stroke-dasharray:none" />
      <path
         inkscape:connector-curvature="0"
         id="path5778"
         d="m 372.49816,459.46723 c 0,3.123 2.5469,5.669 5.6695,5.669 3.12209,0 5.66903,-2.546 5.66903,-5.669 0,-3.123 -2.54694,-5.669 -5.66903,-5.669 -3.1226,0 -5.6695,2.546 -5.6695,5.669 z"
         style="fill:none;stroke:#ff0000;stroke-width:0.14173229;stroke-miterlimit:4;stroke-opacity:1;stroke-dasharray:none" />
      <path
         inkscape:connector-curvature="0"
         id="path5780"
         d="m 372.49816,595.53023 c 0,3.123 2.5469,5.669 5.6695,5.669 3.12209,0 5.66903,-2.546 5.66903,-5.669 0,-3.123 -2.54694,-5.669 -5.66903,-5.669 -3.1226,0 -5.6695,2.546 -5.6695,5.669 z"
         style="fill:none;stroke:#ff0000;stroke-width:0.14173229;stroke-miterlimit:4;stroke-opacity:1;stroke-dasharray:none" />
      <path
         inkscape:connector-curvature="0"
         id="path5782"
         d="m 400.84456,595.53023 c 0,3.123 2.5469,5.669 5.6696,5.669 3.1221,0 5.669,-2.546 5.669,-5.669 0,-3.123 -2.5469,-5.669 -5.669,-5.669 -3.1227,0 -5.6696,2.546 -5.6696,5.669 z"
         style="fill:none;stroke:#ff0000;stroke-width:0.14173229;stroke-miterlimit:4;stroke-opacity:1;stroke-dasharray:none" />
      <path
         inkscape:connector-curvature="0"
         id="path5784"
         d="m 400.84456,459.46723 c 0,3.123 2.5469,5.669 5.6693,5.669 3.1224,0 5.6693,-2.546 5.6693,-5.669 0,-3.123 -2.5469,-5.669 -5.6693,-5.669 -3.1224,0 -5.6693,2.546 -5.6693,5.669 z"
         style="fill:none;stroke:#ff0000;stroke-width:0.14173229;stroke-miterlimit:4;stroke-opacity:1;stroke-dasharray:none" />
      <path
         inkscape:connector-curvature="0"
         id="path5786"
         d="m 391.63338,242.47513 c -2.41992,0 -4.39368,1.9738 -4.39368,4.3937 0,2.4199 1.97376,4.3937 4.39368,4.3937 2.41992,0 4.39374,-1.9738 4.39374,-4.3937 0,-2.4199 -1.97382,-4.3937 -4.39374,-4.3937 z"
         style="fill:none;stroke:#ff0000;stroke-width:0.14173229;stroke-miterlimit:4;stroke-opacity:1;stroke-dasharray:none" />
      <path
         inkscape:connector-curvature="0"
         id="path5788"
         d="m 391.63338,299.16803 c -2.41992,0 -4.39368,1.9738 -4.39368,4.3937 0,2.4199 1.97376,4.3937 4.39368,4.3937 2.41992,0 4.39374,-1.9738 4.39374,-4.3937 0,-2.4199 -1.97382,-4.3937 -4.39374,-4.3937 z"
         style="fill:none;stroke:#ff0000;stroke-width:0.14173229;stroke-miterlimit:4;stroke-opacity:1;stroke-dasharray:none" />
      <path
         inkscape:connector-curvature="0"
         id="path5790"
         d="m 419.97986,242.47513 c -2.42,0 -4.3937,1.9738 -4.3937,4.3937 0,2.4199 1.9737,4.3937 4.3937,4.3937 2.4199,0 4.3937,-1.9738 4.3937,-4.3937 0,-2.4199 -1.9738,-4.3937 -4.3937,-4.3937 z"
         style="fill:none;stroke:#ff0000;stroke-width:0.14173229;stroke-miterlimit:4;stroke-opacity:1;stroke-dasharray:none" />
      <path
         inkscape:connector-curvature="0"
         id="path5792"
         d="m 419.97986,299.16803 c -2.42,0 -4.3937,1.9738 -4.3937,4.3937 0,2.4199 1.9737,4.3937 4.3937,4.3937 2.4199,0 4.3937,-1.9738 4.3937,-4.3937 0,-2.4199 -1.9738,-4.3937 -4.3937,-4.3937 z"
         style="fill:none;stroke:#ff0000;stroke-width:0.14173229;stroke-miterlimit:4;stroke-opacity:1;stroke-dasharray:none" />
      <path
         inkscape:connector-curvature="0"
         id="path5794"
         d="m 391.63338,627.98723 c -2.41992,0 -4.39368,1.973 -4.39368,4.393 0,2.42 1.97376,4.394 4.39368,4.394 2.41992,0 4.39374,-1.974 4.39374,-4.394 0,-2.42 -1.97382,-4.393 -4.39374,-4.393 z"
         style="fill:none;stroke:#ff0000;stroke-width:0.14173229;stroke-miterlimit:4;stroke-opacity:1;stroke-dasharray:none" />
      <path
         inkscape:connector-curvature="0"
         id="path5796"
         d="m 391.63338,684.68023 c -2.41992,0 -4.39368,1.973 -4.39368,4.393 0,2.42 1.97376,4.394 4.39368,4.394 2.41992,0 4.39374,-1.974 4.39374,-4.394 0,-2.42 -1.97382,-4.393 -4.39374,-4.393 z"
         style="fill:none;stroke:#ff0000;stroke-width:0.14173229;stroke-miterlimit:4;stroke-opacity:1;stroke-dasharray:none" />
      <path
         inkscape:connector-curvature="0"
         id="path5798"
         d="m 419.97986,627.98723 c -2.42,0 -4.3937,1.973 -4.3937,4.393 0,2.42 1.9737,4.394 4.3937,4.394 2.4199,0 4.3937,-1.974 4.3937,-4.394 0,-2.42 -1.9738,-4.393 -4.3937,-4.393 z"
         style="fill:none;stroke:#ff0000;stroke-width:0.14173229;stroke-miterlimit:4;stroke-opacity:1;stroke-dasharray:none" />
      <path
         inkscape:connector-curvature="0"
         id="path5800"
         d="m 419.97986,684.68023 c -2.42,0 -4.3937,1.973 -4.3937,4.393 0,2.42 1.9737,4.394 4.3937,4.394 2.4199,0 4.3937,-1.974 4.3937,-4.394 0,-2.42 -1.9738,-4.393 -4.3937,-4.393 z"
         style="fill:none;stroke:#ff0000;stroke-width:0.14173229;stroke-miterlimit:4;stroke-opacity:1;stroke-dasharray:none" />
      <path
         inkscape:connector-curvature="0"
         id="path5802"
         d="m 435.57036,484.97923 0,28.346 8.504,0 0,-28.346 -8.504,0 z"
         style="fill:none;stroke:#ff0000;stroke-width:0.14173229;stroke-miterlimit:4;stroke-opacity:1;stroke-dasharray:none" />
      <path
         inkscape:connector-curvature="0"
         id="path5804"
         d="m 435.57036,541.67223 0,28.346 8.504,0 0,-28.346 -8.504,0 z"
         style="fill:none;stroke:#ff0000;stroke-width:0.14173229;stroke-miterlimit:4;stroke-opacity:1;stroke-dasharray:none" />
      <path
         inkscape:connector-curvature="0"
         id="path5806"
         d="m 435.42866,527.49923 c 0,2.419 1.9741,4.393 4.3937,4.393 2.4197,0 4.3937,-1.974 4.3937,-4.393 0,-2.42 -1.974,-4.394 -4.3937,-4.394 -2.4196,0 -4.3937,1.974 -4.3937,4.394 z"
         style="fill:none;stroke:#ff0000;stroke-width:0.14173229;stroke-miterlimit:4;stroke-opacity:1;stroke-dasharray:none" />
      <path
         inkscape:connector-curvature="0"
         id="path5808"
         d="m 329.27116,241.19953 0,453.5437 c 0,12.49 10.1869,22.677 22.6772,22.677 l 0,-28.347 8.5039,0 0,28.347 73.7008,0 c 12.4903,0 22.6772,-10.187 22.6772,-22.677 l 0,-453.5437 c 0,-12.4903 -10.1869,-22.67717 -22.6772,-22.67717 l -82.2047,0 c -12.4903,0 -22.6772,10.18687 -22.6772,22.67717 z m 31.1811,419.5277 0,-28.347 -8.5039,0 0,28.347 8.5039,0 z m 0.1418,14.173 c 0,-2.42 -1.9741,-4.394 -4.3937,-4.394 -2.4197,0 -4.3938,1.974 -4.3938,4.394 0,2.42 1.9741,4.394 4.3938,4.394 2.4196,0 4.3937,-1.974 4.3937,-4.394 z"
         style="fill:none;stroke:#ff0000;stroke-width:0.14173229;stroke-miterlimit:4;stroke-opacity:1;stroke-dasharray:none" />
      <path
         inkscape:connector-curvature="0"
         id="path5812"
         d="m 346.67906,564.00823 -0.216,-90.368"
         style="fill:none;stroke:#ff0000;stroke-width:0.14173229;stroke-miterlimit:4;stroke-opacity:1;stroke-dasharray:none" />
      <path
         inkscape:connector-curvature="0"
         id="path5814"
         d="m 338.82256,555.73723 16.3304,0"
         style="fill:none;stroke:#ff0000;stroke-width:0.14173229;stroke-miterlimit:4;stroke-opacity:1;stroke-dasharray:none" />
    </g>
    <g
       style="fill-rule:evenodd;display:inline"
       id="g6803"
       transform="translate(2.5511863,0)">
      <path
         inkscape:connector-curvature="0"
         id="path5724"
         d="m 488.01136,547.34123 0,28.346 -8.504,0 0,-28.346 8.504,0 z"
         style="fill:none;stroke:#ff0000;stroke-width:0.14173229;stroke-miterlimit:4;stroke-opacity:1;stroke-dasharray:none" />
      <path
         inkscape:connector-curvature="0"
         id="path5726"
         d="m 488.01136,604.03423 0,28.346 -8.504,0 0,-28.346 8.504,0 z"
         style="fill:none;stroke:#ff0000;stroke-width:0.14173229;stroke-miterlimit:4;stroke-opacity:1;stroke-dasharray:none" />
      <path
         inkscape:connector-curvature="0"
         id="path5728"
         d="m 488.15306,589.86123 c 0,2.419 -1.974,4.393 -4.3937,4.393 -2.4196,0 -4.3937,-1.974 -4.3937,-4.393 0,-2.42 1.9741,-4.394 4.3937,-4.394 2.4197,0 4.3937,1.974 4.3937,4.394 z"
         style="fill:none;stroke:#ff0000;stroke-width:0.14173229;stroke-miterlimit:4;stroke-opacity:1;stroke-dasharray:none" />
      <path
         inkscape:connector-curvature="0"
         id="path5730"
         d="m 488.71996,467.97123 0,-119.055 62.3626,0 0,119.055 -62.3626,0 z"
         style="fill:none;stroke:#ff0000;stroke-width:0.14173229;stroke-miterlimit:4;stroke-opacity:1;stroke-dasharray:none" />
      <path
         inkscape:connector-curvature="0"
         id="path5732"
         d="m 500.05756,476.47523 c 0,-3.123 2.547,-5.669 5.669,-5.669 3.122,0 5.669,2.546 5.669,5.669 0,3.123 -2.547,5.669 -5.669,5.669 -3.122,0 -5.669,-2.546 -5.669,-5.669 z"
         style="fill:none;stroke:#ff0000;stroke-width:0.14173229;stroke-miterlimit:4;stroke-opacity:1;stroke-dasharray:none" />
      <path
         inkscape:connector-curvature="0"
         id="path5734"
         d="m 500.05756,340.41223 c 0,-3.123 2.547,-5.669 5.669,-5.669 3.122,0 5.669,2.546 5.669,5.669 0,3.123 -2.547,5.669 -5.669,5.669 -3.122,0 -5.669,-2.546 -5.669,-5.669 z"
         style="fill:none;stroke:#ff0000;stroke-width:0.14173229;stroke-miterlimit:4;stroke-opacity:1;stroke-dasharray:none" />
      <path
         inkscape:connector-curvature="0"
         id="path5736"
         d="m 528.40356,340.41223 c 0,-3.123 2.547,-5.669 5.67,-5.669 3.122,0 5.669,2.546 5.669,5.669 0,3.123 -2.547,5.669 -5.669,5.669 -3.123,0 -5.67,-2.546 -5.67,-5.669 z"
         style="fill:none;stroke:#ff0000;stroke-width:0.14173229;stroke-miterlimit:4;stroke-opacity:1;stroke-dasharray:none" />
      <path
         inkscape:connector-curvature="0"
         id="path5738"
         d="m 528.40356,476.47523 c 0,-3.123 2.547,-5.669 5.669,-5.669 3.123,0 5.67,2.546 5.67,5.669 0,3.123 -2.547,5.669 -5.67,5.669 -3.122,0 -5.669,-2.546 -5.669,-5.669 z"
         style="fill:none;stroke:#ff0000;stroke-width:0.14173229;stroke-miterlimit:4;stroke-opacity:1;stroke-dasharray:none" />
      <path
         inkscape:connector-curvature="0"
         id="path5740"
         d="m 519.19256,693.46723 c -2.42,0 -4.394,-1.974 -4.394,-4.394 0,-2.42 1.974,-4.393 4.394,-4.393 2.42,0 4.394,1.973 4.394,4.393 0,2.42 -1.974,4.394 -4.394,4.394 z"
         style="fill:none;stroke:#ff0000;stroke-width:0.14173229;stroke-miterlimit:4;stroke-opacity:1;stroke-dasharray:none" />
      <path
         inkscape:connector-curvature="0"
         id="path5742"
         d="m 519.19256,636.77423 c -2.42,0 -4.394,-1.974 -4.394,-4.394 0,-2.42 1.974,-4.393 4.394,-4.393 2.42,0 4.394,1.973 4.394,4.393 0,2.42 -1.974,4.394 -4.394,4.394 z"
         style="fill:none;stroke:#ff0000;stroke-width:0.14173229;stroke-miterlimit:4;stroke-opacity:1;stroke-dasharray:none" />
      <path
         inkscape:connector-curvature="0"
         id="path5744"
         d="m 547.53856,693.46723 c -2.42,0 -4.393,-1.974 -4.393,-4.394 0,-2.42 1.973,-4.393 4.393,-4.393 2.42,0 4.394,1.973 4.394,4.393 0,2.42 -1.974,4.394 -4.394,4.394 z"
         style="fill:none;stroke:#ff0000;stroke-width:0.14173229;stroke-miterlimit:4;stroke-opacity:1;stroke-dasharray:none" />
      <path
         inkscape:connector-curvature="0"
         id="path5746"
         d="m 547.53856,636.77423 c -2.42,0 -4.393,-1.974 -4.393,-4.394 0,-2.42 1.973,-4.393 4.393,-4.393 2.42,0 4.394,1.973 4.394,4.393 0,2.42 -1.974,4.394 -4.394,4.394 z"
         style="fill:none;stroke:#ff0000;stroke-width:0.14173229;stroke-miterlimit:4;stroke-opacity:1;stroke-dasharray:none" />
      <path
         inkscape:connector-curvature="0"
         id="path5748"
         d="m 519.19256,307.95543 c -2.42,0 -4.394,-1.9738 -4.394,-4.3937 0,-2.4199 1.974,-4.3937 4.394,-4.3937 2.42,0 4.394,1.9738 4.394,4.3937 0,2.4199 -1.974,4.3937 -4.394,4.3937 z"
         style="fill:none;stroke:#ff0000;stroke-width:0.14173229;stroke-miterlimit:4;stroke-opacity:1;stroke-dasharray:none" />
      <path
         inkscape:connector-curvature="0"
         id="path5750"
         d="m 519.19256,251.26253 c -2.42,0 -4.394,-1.9738 -4.394,-4.3937 0,-2.4199 1.974,-4.3937 4.394,-4.3937 2.42,0 4.394,1.9738 4.394,4.3937 0,2.4199 -1.974,4.3937 -4.394,4.3937 z"
         style="fill:none;stroke:#ff0000;stroke-width:0.14173229;stroke-miterlimit:4;stroke-opacity:1;stroke-dasharray:none" />
      <path
         inkscape:connector-curvature="0"
         id="path5752"
         d="m 547.53856,307.95543 c -2.42,0 -4.393,-1.9738 -4.393,-4.3937 0,-2.4199 1.973,-4.3937 4.393,-4.3937 2.42,0 4.394,1.9738 4.394,4.3937 0,2.4199 -1.974,4.3937 -4.394,4.3937 z"
         style="fill:none;stroke:#ff0000;stroke-width:0.14173229;stroke-miterlimit:4;stroke-opacity:1;stroke-dasharray:none" />
      <path
         inkscape:connector-curvature="0"
         id="path5754"
         d="m 547.53856,251.26253 c -2.42,0 -4.393,-1.9738 -4.393,-4.3937 0,-2.4199 1.973,-4.3937 4.393,-4.3937 2.42,0 4.394,1.9738 4.394,4.3937 0,2.4199 -1.974,4.3937 -4.394,4.3937 z"
         style="fill:none;stroke:#ff0000;stroke-width:0.14173229;stroke-miterlimit:4;stroke-opacity:1;stroke-dasharray:none" />
      <path
         inkscape:connector-curvature="0"
         id="path5756"
         d="m 563.12956,450.96323 0,-28.346 8.504,0 0,28.346 -8.504,0 z"
         style="fill:none;stroke:#ff0000;stroke-width:0.14173229;stroke-miterlimit:4;stroke-opacity:1;stroke-dasharray:none" />
      <path
         inkscape:connector-curvature="0"
         id="path5758"
         d="m 563.12956,394.27023 0,-28.346 8.504,0 0,28.346 -8.504,0 z"
         style="fill:none;stroke:#ff0000;stroke-width:0.14173229;stroke-miterlimit:4;stroke-opacity:1;stroke-dasharray:none" />
      <path
         inkscape:connector-curvature="0"
         id="path5760"
         d="m 562.98756,408.44323 c 0,-2.419 1.974,-4.393 4.394,-4.393 2.419,0 4.394,1.974 4.394,4.393 0,2.42 -1.975,4.394 -4.394,4.394 -2.42,0 -4.394,-1.974 -4.394,-4.394 z"
         style="fill:none;stroke:#ff0000;stroke-width:0.14173229;stroke-miterlimit:4;stroke-opacity:1;stroke-dasharray:none" />
      <path
         inkscape:connector-curvature="0"
         id="path5762"
         d="m 456.83026,694.74323 0,-453.5437 c 0,-12.4903 10.1868,-22.67717 22.6771,-22.67717 l 0,28.34647 8.504,0 0,-28.34647 73.7012,0 c 12.49,0 22.677,10.18687 22.677,22.67717 l 0,453.5437 c 0,12.49 -10.187,22.677 -22.677,22.677 l -82.2052,0 c -12.4903,0 -22.6771,-10.187 -22.6771,-22.677 z m 31.1811,-419.528 0,28.3465 -8.504,0 0,-28.3465 8.504,0 z m 0.1417,-14.1732 c 0,2.4197 -1.974,4.3937 -4.3937,4.3937 -2.4196,0 -4.3937,-1.974 -4.3937,-4.3937 0,-2.4196 1.9741,-4.3937 4.3937,-4.3937 2.4197,0 4.3937,1.9741 4.3937,4.3937 z"
         style="fill:none;stroke:#ff0000;stroke-width:0.14173229;stroke-miterlimit:4;stroke-opacity:1;stroke-dasharray:none" />
      <path
         inkscape:connector-curvature="0"
         id="path5766"
         d="m 474.23806,371.93323 -0.216,90.369"
         style="fill:none;stroke:#ff0000;stroke-width:0.14173229;stroke-miterlimit:4;stroke-opacity:1;stroke-dasharray:none" />
      <path
         inkscape:connector-curvature="0"
         id="path5768"
         d="m 466.38156,380.20523 16.3304,0"
         style="fill:none;stroke:#ff0000;stroke-width:0.14173229;stroke-miterlimit:4;stroke-opacity:1;stroke-dasharray:none" />
    </g>
    <g
       style="fill-rule:evenodd;display:inline"
       id="g6668"
       transform="translate(4.1267149,-2.6227813)">
      <g
         style="fill:none;stroke:#ff0000;stroke-width:0.14173229;stroke-miterlimit:4;stroke-opacity:1;stroke-dasharray:none"
         transform="translate(-5.1723536,-110.58057)"
         id="g3245">
        <path
           style="fill:none;stroke:#ff0000;stroke-width:0.14173229;stroke-miterlimit:4;stroke-opacity:1;stroke-dasharray:none"
           d="m 361.57193,228.62486 -82.2052,0 c -12.4903,0 -22.6772,-10.187 -22.6772,-22.677 l 28.3464,0 0,-8.504 -28.3464,0 0,-36.992 28.3464,0 0,-8.504 -28.3444,0 c 0.0768,-12.425 10.2322,-22.535 22.6752,-22.535 l 82.2052,0 c 12.49,0 22.677,10.187 22.677,22.677 l 0,53.858 c 0,12.49 -10.187,22.677 -22.677,22.677 z m -48.189,-31.181 28.346,0 0,8.504 -28.346,0 0,-8.504 z m -14.174,-0.142 c 2.42,0 4.394,1.975 4.394,4.394 0,2.42 -1.974,4.394 -4.394,4.394 -2.419,0 -4.393,-1.974 -4.393,-4.394 0,-2.419 1.974,-4.394 4.393,-4.394 z m 14.174,-45.354 28.346,0 0,8.504 -28.346,0 0,-8.504 z m -14.174,-0.142 c 2.42,0 4.394,1.974 4.394,4.394 0,2.42 -1.974,4.394 -4.394,4.394 -2.419,0 -4.393,-1.974 -4.393,-4.394 0,-2.42 1.974,-4.394 4.393,-4.394 z"
           id="path5816"
           inkscape:connector-curvature="0" />
        <path
           style="fill:none;stroke:#ff0000;stroke-width:0.14173229;stroke-miterlimit:4;stroke-opacity:1;stroke-dasharray:none"
           d="m 293.68193,179.01886 c 0,6.323 -5.158,11.48 -11.481,11.48 -6.3228,0 -11.4799,-5.157 -11.4799,-11.48 0,-6.323 5.1571,-11.48 11.4799,-11.48 6.323,0 11.481,5.157 11.481,11.48 z"
           id="path5818"
           inkscape:connector-curvature="0" />
      </g>
    </g>
    <g
       style="fill-rule:evenodd;display:inline"
       id="g6656"
       transform="translate(-0.0084412,-2.3833613)">
      <path
         inkscape:connector-curvature="0"
         id="path5822"
         d="m 250.5506,99.59914 c 0,12.49099 -10.1869,22.67799 -22.6772,22.67799 l -68.0315,0 c -12.4902,0 -22.6771,-10.187 -22.6771,-22.67799 l 0,-68.030999 c 0,-12.49 10.1869,-22.6770011 22.6771,-22.6770011 l 68.0315,0 c 12.4903,0 22.6772,10.1870011 22.6772,22.6770011 l 0,68.030999 z"
         style="fill:none;stroke:#ff0000;stroke-width:0.14173229;stroke-miterlimit:4;stroke-opacity:1;stroke-dasharray:none" />
      <path
         inkscape:connector-curvature="0"
         id="path5824"
         d="m 157.0073,108.82813 c -2.4199,0 -4.3937,-1.97399 -4.3937,-4.39399 0,-2.42 1.9738,-4.394 4.3937,-4.394 2.42,0 4.3937,1.974 4.3937,4.394 0,2.42 -1.9737,4.39399 -4.3937,4.39399 z"
         style="fill:none;stroke:#ff0000;stroke-width:0.14173229;stroke-miterlimit:4;stroke-opacity:1;stroke-dasharray:none" />
      <path
         inkscape:connector-curvature="0"
         id="path5826"
         d="m 230.7081,108.82813 c -2.4199,0 -4.3937,-1.97399 -4.3937,-4.39399 0,-2.42 1.9738,-4.394 4.3937,-4.394 2.4199,0 4.3937,1.974 4.3937,4.394 0,2.42 -1.9738,4.39399 -4.3937,4.39399 z"
         style="fill:none;stroke:#ff0000;stroke-width:0.14173229;stroke-miterlimit:4;stroke-opacity:1;stroke-dasharray:none" />
      <path
         inkscape:connector-curvature="0"
         id="path5828"
         d="m 230.7081,35.127141 c -2.4199,0 -4.3937,-1.974 -4.3937,-4.394 0,-2.42 1.9738,-4.393 4.3937,-4.393 2.4199,0 4.3937,1.973 4.3937,4.393 0,2.42 -1.9738,4.394 -4.3937,4.394 z"
         style="fill:none;stroke:#ff0000;stroke-width:0.14173229;stroke-miterlimit:4;stroke-opacity:1;stroke-dasharray:none" />
      <path
         inkscape:connector-curvature="0"
         id="path5830"
         d="m 193.8577,98.835138 c -17.21308,0 -31.2517,-14.038002 -31.2517,-31.252002 0,-17.212995 14.03862,-31.251995 31.2517,-31.251995 17.2134,0 31.2523,14.039 31.2523,31.251995 0,17.214 -14.0389,31.252002 -31.2523,31.252002 z"
         style="fill:none;stroke:#ff0000;stroke-width:0.14173229;stroke-miterlimit:4;stroke-opacity:1;stroke-dasharray:none" />
      <path
         inkscape:connector-curvature="0"
         id="path5832"
         d="m 157.0073,35.127141 c -2.4199,0 -4.3937,-1.974 -4.3937,-4.394 0,-2.42 1.9738,-4.393 4.3937,-4.393 2.42,0 4.3937,1.973 4.3937,4.393 0,2.42 -1.9737,4.394 -4.3937,4.394 z"
         style="fill:none;stroke:#ff0000;stroke-width:0.14173229;stroke-miterlimit:4;stroke-opacity:1;stroke-dasharray:none" />
    </g>
    <g
       style="fill-rule:evenodd;display:inline"
       id="g6689"
       transform="translate(-0.44744,-0.81663885)">
      <path
         inkscape:connector-curvature="0"
         id="path5850"
         d="m 123.63738,131.11622 42.52,-0.054 0,-8.45 28.347,0 0,8.504 9.637,0 0,22.677 -4.535,0 0,8.504 4.535,0 0,5.669 9.071,0 0,-5.669 4.536,0 0,-8.504 -4.536,0 0,-22.677 9.638,0 0,-8.504 28.347,0 c 0,0 0,44.203 0,56.693 0,12.49 -10.187,22.677 -22.678,22.677 l -82.204,0 c -12.491,0 -22.678,-10.187 -22.678,-22.676 0,-12.49 0,-48.19 0,-48.19 z"
         style="fill:none;stroke:#ff0000;stroke-width:0.14173229;stroke-miterlimit:4;stroke-opacity:1;stroke-dasharray:none" />
      <path
         inkscape:connector-curvature="0"
         id="path5852"
         d="m 144.98723,168.33443 c 6.323,0 11.48,5.157 11.48,11.48 0,6.323 -5.157,11.48 -11.48,11.48 -6.324,0 -11.481,-5.157 -11.481,-11.48 0,-6.323 5.157,-11.48 11.481,-11.48 z"
         style="fill:none;stroke:#ff0000;stroke-width:0.14173229;stroke-miterlimit:4;stroke-opacity:1;stroke-dasharray:none" />
    </g>
    <g
       style="fill-rule:evenodd;display:inline"
       id="g6641"
       transform="translate(-4.2210225,0.38912824)">
      <path
         inkscape:connector-curvature="0"
         id="path5836"
         d="m 65.616228,120.28643 c 14.052,0 25.512,11.461 25.512,25.512 0,14.052 -11.46,25.512 -25.512,25.512 -14.052,0 -25.512,-11.46 -25.512,-25.512 0,-14.051 11.46,-25.512 25.512,-25.512 z"
         style="fill:none;stroke:#ff0000;stroke-width:0.14173229;stroke-miterlimit:4;stroke-opacity:1;stroke-dasharray:none" />
      <path
         inkscape:connector-curvature="0"
         id="path5838"
         d="m 8.9232278,111.78243 c 0,-12.489992 10.1870002,-22.676994 22.6780002,-22.676994 l 68.031,0 c 12.490002,0 22.677002,10.187002 22.677002,22.676994 l 0,68.032 c 0,12.49 -10.187,22.677 -22.677002,22.677 l -68.031,0 c -12.491,0 -22.6780002,-10.187 -22.6780002,-22.677 l 0,-68.032 z"
         style="fill:none;stroke:#ff0000;stroke-width:0.14173229;stroke-miterlimit:4;stroke-opacity:1;stroke-dasharray:none" />
      <path
         inkscape:connector-curvature="0"
         id="path5840"
         d="m 102.46723,104.55444 c 2.42,0 4.393,1.97399 4.393,4.39399 0,2.419 -1.973,4.393 -4.393,4.393 -2.42,0 -4.394002,-1.974 -4.394002,-4.393 0,-2.42 1.974002,-4.39399 4.394002,-4.39399 z"
         style="fill:none;stroke:#ff0000;stroke-width:0.14173229;stroke-miterlimit:4;stroke-opacity:1;stroke-dasharray:none" />
      <path
         inkscape:connector-curvature="0"
         id="path5842"
         d="m 28.766228,104.55444 c 2.42,0 4.394,1.97399 4.394,4.39399 0,2.419 -1.974,4.393 -4.394,4.393 -2.42,0 -4.394,-1.974 -4.394,-4.393 0,-2.42 1.974,-4.39399 4.394,-4.39399 z"
         style="fill:none;stroke:#ff0000;stroke-width:0.14173229;stroke-miterlimit:4;stroke-opacity:1;stroke-dasharray:none" />
      <path
         inkscape:connector-curvature="0"
         id="path5844"
         d="m 28.766228,178.25543 c 2.42,0 4.394,1.973 4.394,4.393 0,2.42 -1.974,4.394 -4.394,4.394 -2.42,0 -4.394,-1.974 -4.394,-4.394 0,-2.42 1.974,-4.393 4.394,-4.393 z"
         style="fill:none;stroke:#ff0000;stroke-width:0.14173229;stroke-miterlimit:4;stroke-opacity:1;stroke-dasharray:none" />
      <path
         inkscape:connector-curvature="0"
         id="path5846"
         d="m 102.46723,178.25543 c 2.42,0 4.393,1.973 4.393,4.393 0,2.42 -1.973,4.394 -4.393,4.394 -2.42,0 -4.394002,-1.974 -4.394002,-4.394 0,-2.42 1.974002,-4.393 4.394002,-4.393 z"
         style="fill:none;stroke:#ff0000;stroke-width:0.14173229;stroke-miterlimit:4;stroke-opacity:1;stroke-dasharray:none" />
    </g>
    <g
       style="fill-rule:evenodd;display:inline"
       id="g6679"
       transform="translate(4.6694225,1.0161295)">
      <path
         inkscape:connector-curvature="0"
         id="path5712"
         d="m 251.18225,202.94014 0,-28.347 8.5039,0 0,-9.638 22.677,0 0,4.536 8.504,0 0,-4.536 5.669,0 0,-9.0704 -5.669,0 0,-4.5354 -8.504,0 0,4.5354 -22.677,0 0,-9.6377 -8.5039,0 0,-28.3465 320.3149,0 0,28.3465 -8.504,0 0,9.6377 -22.677,0 0,-4.5354 -8.504,0 0,4.5354 -5.669,0 0,9.0704 5.669,0 0,4.536 8.504,0 0,-4.536 22.677,0 0,9.638 8.504,0 0,28.347 -320.3149,0 z"
         style="fill:none;stroke:#ff0000;stroke-width:0.14173229;stroke-miterlimit:4;stroke-opacity:1;stroke-dasharray:none" />
      <path
         inkscape:connector-curvature="0"
         id="path5714"
         d="m 390.08015,156.02644 c 2.42,0 4.393,1.9737 4.393,4.3937 0,2.42 -1.973,4.394 -4.393,4.394 -2.42,0 -4.394,-1.974 -4.394,-4.394 0,-2.42 1.974,-4.3937 4.394,-4.3937 z"
         style="fill:none;stroke:#ff0000;stroke-width:0.14173229;stroke-miterlimit:4;stroke-opacity:1;stroke-dasharray:none" />
      <path
         inkscape:connector-curvature="0"
         id="path5716"
         d="m 432.59915,156.02644 c 2.42,0 4.394,1.9737 4.394,4.3937 0,2.42 -1.974,4.394 -4.394,4.394 -2.419,0 -4.393,-1.974 -4.393,-4.394 0,-2.42 1.974,-4.3937 4.393,-4.3937 z"
         style="fill:none;stroke:#ff0000;stroke-width:0.14173229;stroke-miterlimit:4;stroke-opacity:1;stroke-dasharray:none" />
      <path
         inkscape:connector-curvature="0"
         id="path5718"
         d="m 347.56015,156.02644 c 2.42,0 4.394,1.9737 4.394,4.3937 0,2.42 -1.974,4.394 -4.394,4.394 -2.42,0 -4.394,-1.974 -4.394,-4.394 0,-2.42 1.974,-4.3937 4.394,-4.3937 z"
         style="fill:none;stroke:#ff0000;stroke-width:0.14173229;stroke-miterlimit:4;stroke-opacity:1;stroke-dasharray:none" />
      <path
         inkscape:connector-curvature="0"
         id="path5720"
         d="m 475.11915,156.02644 c 2.42,0 4.394,1.9737 4.394,4.3937 0,2.42 -1.974,4.394 -4.394,4.394 -2.42,0 -4.394,-1.974 -4.394,-4.394 0,-2.42 1.974,-4.3937 4.394,-4.3937 z"
         style="fill:none;stroke:#ff0000;stroke-width:0.14173229;stroke-miterlimit:4;stroke-opacity:1;stroke-dasharray:none" />
    </g>
    <g
       style="fill-rule:evenodd;display:inline"
       id="g6630"
       transform="translate(-4.1173137,-1.9891283)">
      <path
         inkscape:connector-curvature="0"
         id="path5856"
         d="m 136.17194,79.47788 -42.52,0.054 0,8.45 -28.347,0 0,-8.504 -9.637,0 0,-22.677 4.535,0 0,-8.504 -4.535,0 0,-5.669 -9.071,0 0,5.669 -4.536,0 0,8.504 4.536,0 0,22.677 -9.638,0 0,8.504 -28.347,0 c 0,0 0,-44.202 0,-56.693 0,-12.49 10.187,-22.677 22.678,-22.677 l 82.204,0 c 12.491,0 22.678,10.187 22.678,22.677 0,12.49 0,48.189 0,48.189 z"
         style="fill:none;stroke:#ff0000;stroke-width:0.14173229;stroke-miterlimit:4;stroke-opacity:1;stroke-dasharray:none" />
      <path
         inkscape:connector-curvature="0"
         id="path5858"
         d="m 113.49394,42.76988 c -6.323,0 -11.48,-5.158 -11.48,-11.481 0,-6.323 5.157,-11.48 11.48,-11.48 6.324,0 11.481,5.157 11.481,11.48 0,6.323 -5.157,11.481 -11.481,11.481 z"
         style="fill:none;stroke:#ff0000;stroke-width:0.14173229;stroke-miterlimit:4;stroke-opacity:1;stroke-dasharray:none" />
    </g>
    <g
       style="fill-rule:evenodd;display:inline"
       id="g6697"
       transform="translate(-1.3276543,1.6066518)">
      <path
         inkscape:connector-curvature="0"
         id="path5640"
         d="m 58.530228,718.39634 0,-8.504 -41.103001,0 0,-85.039 -8.5039992,0 0,-28.346 8.5039992,0 0,-9.63791 22.678001,0 0,4.535 8.503,0 0,-4.535 5.67,0 0,-9.071 -5.67,0 0,-4.536 -8.503,0 0,4.536 -22.678001,0 0,-9.638 -8.5039992,0 0,-28.346 8.5039992,0 0,-243.78 -8.5039992,0 0,-28.346 8.5039992,0 0,-9.638 22.678001,0 0,4.535 8.503,0 0,-4.535 5.67,0 0,-9.071 -5.67,0 0,-4.535 -8.503,0 0,4.535 -22.678001,0 0,-9.638 -8.5039992,0 0,-28.346 8.5039992,0 0,0 41.103001,0 0,-8.504 28.346,0 0,8.504 9.638,0 0,22.677 -4.535,0 0,8.504 4.535,0 0,5.669 9.071002,0 0,-5.669 4.535,0 0,-8.504 -4.535,0 0,-22.677 9.638,0 0,-8.504 28.346,0 0,8.504 51.024,0 0,-8.504 28.346,0 0,8.504 9.638,0 0,22.677 -4.535,0 0,8.504 4.535,0 0,5.669 9.071,0 0,-5.669 4.535,0 0,-8.504 -4.535,0 0,-22.677 9.638,0 0,-8.504 28.346,0 0,8.504 41.102,0 0,0 8.5,0 0,28.346 -8.5,0 0,9.638 -22.677,0 0,-4.535 -8.504,0 0,4.535 -5.669,0 0,9.071 5.669,0 0,4.535 8.504,0 0,-4.535 22.677,0 0,9.638 8.5,0 0,28.346 -8.5,0 0,243.78 8.5,0 0,28.346 -8.5,0 0,9.638 -22.677,0 0,-4.536 -8.504,0 0,4.536 -5.669,0 0,9.071 5.669,0 0,4.535 8.504,0 0,-4.535 22.677,0 0,9.63791 8.5,0 0,28.346 -8.5,0 0,85.039 -41.102,0 0,8.504 -28.346,0 0,-8.504 -9.638,0 0,-22.677 4.535,0 0,-8.504 -4.535,0 0,-5.669 -9.071,0 0,5.669 -4.535,0 0,8.504 4.535,0 0,22.677 -9.638,0 0,8.504 -28.346,0 0,-8.504 -51.024,0 0,8.504 -28.346,0 0,-8.504 -9.638,0 0,-22.677 4.535,0 0,-8.504 -4.535,0 0,-5.669 -9.071002,0 0,5.669 -4.535,0 0,8.504 4.535,0 0,22.677 -9.638,0 0,8.504 -28.346,0 z"
         style="fill:none;stroke:#ff0000;stroke-width:0.14173229;stroke-miterlimit:4;stroke-opacity:1;stroke-dasharray:none" />
      <path
         inkscape:connector-curvature="0"
         id="path5642"
         d="m 28.199228,662.62444 c 0,-2.497 2.037,-4.535 4.535,-4.535 2.498,0 4.536,2.038 4.536,4.535 0,2.499 -2.038,4.536 -4.536,4.536 -2.498,0 -4.535,-2.037 -4.535,-4.536 z"
         style="fill:none;stroke:#ff0000;stroke-width:0.14173229;stroke-miterlimit:4;stroke-opacity:1;stroke-dasharray:none" />
      <path
         inkscape:connector-curvature="0"
         id="path5644"
         d="m 71.569228,518.34143 c 0,-2.498 2.037,-4.535 4.536,-4.535 2.497,0 4.535,2.037 4.535,4.535 0,2.498 -2.038,4.536 -4.535,4.536 -2.499,0 -4.536,-2.038 -4.536,-4.536 z"
         style="fill:none;stroke:#ff0000;stroke-width:0.14173229;stroke-miterlimit:4;stroke-opacity:1;stroke-dasharray:none" />
      <path
         inkscape:connector-curvature="0"
         id="path5646"
         d="m 150.37223,518.34143 c 0,-2.498 2.038,-4.535 4.536,-4.535 2.498,0 4.535,2.037 4.535,4.535 0,2.498 -2.037,4.536 -4.535,4.536 -2.498,0 -4.536,-2.038 -4.536,-4.536 z"
         style="fill:none;stroke:#ff0000;stroke-width:0.14173229;stroke-miterlimit:4;stroke-opacity:1;stroke-dasharray:none" />
      <path
         inkscape:connector-curvature="0"
         id="path5648"
         d="m 284.45123,701.17644 c -2.42,0 -4.394,-1.974 -4.394,-4.394 0,-2.42 1.974,-4.393 4.394,-4.393 l 19.843,0 c 2.419,0 4.393,1.973 4.393,4.393 0,2.42 -1.974,4.394 -4.393,4.394 l -19.843,0 z"
         style="fill:none;stroke:#ff0000;stroke-width:0.14173229;stroke-miterlimit:4;stroke-opacity:1;stroke-dasharray:none" />
      <path
         inkscape:connector-curvature="0"
         id="path5650"
         d="m 168.23123,514.08943 c -2.42,0 -4.394,-1.973 -4.394,-4.393 0,-2.42 1.974,-4.394 4.394,-4.394 l 19.842,0 c 2.42,0 4.394,1.974 4.394,4.394 0,2.42 -1.974,4.393 -4.394,4.393 l -19.842,0 z"
         style="fill:none;stroke:#ff0000;stroke-width:0.14173229;stroke-miterlimit:4;stroke-opacity:1;stroke-dasharray:none" />
      <path
         inkscape:connector-curvature="0"
         id="path5652"
         d="m 284.45123,514.08943 c -2.42,0 -4.394,-1.973 -4.394,-4.393 0,-2.42 1.974,-4.394 4.394,-4.394 l 19.843,0 c 2.419,0 4.393,1.974 4.393,4.394 0,2.42 -1.974,4.393 -4.393,4.393 l -19.843,0 z"
         style="fill:none;stroke:#ff0000;stroke-width:0.14173229;stroke-miterlimit:4;stroke-opacity:1;stroke-dasharray:none" />
      <path
         inkscape:connector-curvature="0"
         id="path5654"
         d="m 169.08123,287.53043 c -7.806,0 -14.173,-6.367 -14.173,-14.173 0,-7.806 6.367,-14.173 14.173,-14.173 7.806,0 14.173,6.367 14.173,14.173 0,7.806 -6.367,14.173 -14.173,14.173 z"
         style="fill:none;stroke:#ff0000;stroke-width:0.14173229;stroke-miterlimit:4;stroke-opacity:1;stroke-dasharray:none" />
      <path
         inkscape:connector-curvature="0"
         id="path5656"
         d="m 169.08123,631.94044 c 13.271,0 24.094,10.823 24.094,24.095 0,13.27 -10.823,24.094 -24.094,24.094 -13.271,0 -24.095,-10.824 -24.095,-24.094 0,-13.272 10.824,-24.095 24.095,-24.095 z"
         style="fill:none;stroke:#ff0000;stroke-width:0.14173229;stroke-miterlimit:4;stroke-opacity:1;stroke-dasharray:none" />
      <path
         inkscape:connector-curvature="0"
         id="path5658"
         d="m 205.93123,614.79044 c 2.42,0 4.394,1.974 4.394,4.394 0,2.42 -1.974,4.393 -4.394,4.393 -2.42,0 -4.393,-1.973 -4.393,-4.393 0,-2.42 1.973,-4.394 4.393,-4.394 z"
         style="fill:none;stroke:#ff0000;stroke-width:0.14173229;stroke-miterlimit:4;stroke-opacity:1;stroke-dasharray:none" />
      <path
         inkscape:connector-curvature="0"
         id="path5662"
         d="m 132.23123,688.49144 c 2.419,0 4.393,1.974 4.393,4.394 0,2.419 -1.974,4.393 -4.393,4.393 -2.42,0 -4.394,-1.974 -4.394,-4.393 0,-2.42 1.974,-4.394 4.394,-4.394 z"
         style="fill:none;stroke:#ff0000;stroke-width:0.14173229;stroke-miterlimit:4;stroke-opacity:1;stroke-dasharray:none" />
      <path
         inkscape:connector-curvature="0"
         id="path5664"
         d="m 205.93123,688.49144 c 2.42,0 4.394,1.974 4.394,4.394 0,2.419 -1.974,4.393 -4.394,4.393 -2.42,0 -4.393,-1.974 -4.393,-4.393 0,-2.42 1.973,-4.394 4.393,-4.394 z"
         style="fill:none;stroke:#ff0000;stroke-width:0.14173229;stroke-miterlimit:4;stroke-opacity:1;stroke-dasharray:none" />
      <path
         inkscape:connector-curvature="0"
         id="path5666"
         d="m 147.82123,310.06643 c 2.42,0 4.394,1.973 4.394,4.393 0,2.42 -1.974,4.394 -4.394,4.394 -2.42,0 -4.394,-1.974 -4.394,-4.394 0,-2.42 1.974,-4.393 4.394,-4.393 z"
         style="fill:none;stroke:#ff0000;stroke-width:0.14173229;stroke-miterlimit:4;stroke-opacity:1;stroke-dasharray:none" />
      <path
         inkscape:connector-curvature="0"
         id="path5668"
         d="m 190.34123,310.06643 c 2.42,0 4.393,1.973 4.393,4.393 0,2.42 -1.973,4.394 -4.393,4.394 -2.42,0 -4.394,-1.974 -4.394,-4.394 0,-2.42 1.974,-4.393 4.394,-4.393 z"
         style="fill:none;stroke:#ff0000;stroke-width:0.14173229;stroke-miterlimit:4;stroke-opacity:1;stroke-dasharray:none" />
      <path
         inkscape:connector-curvature="0"
         id="path5670"
         d="m 62.782228,310.06643 c 2.42,0 4.393,1.973 4.393,4.393 0,2.42 -1.973,4.394 -4.393,4.394 -2.42,0 -4.394,-1.974 -4.394,-4.394 0,-2.42 1.974,-4.393 4.394,-4.393 z"
         style="fill:none;stroke:#ff0000;stroke-width:0.14173229;stroke-miterlimit:4;stroke-opacity:1;stroke-dasharray:none" />
      <path
         inkscape:connector-curvature="0"
         id="path5672"
         d="m 105.30123,310.06643 c 2.42,0 4.394,1.973 4.394,4.393 0,2.42 -1.974,4.394 -4.394,4.394 -2.42,0 -4.393,-1.974 -4.393,-4.394 0,-2.42 1.973,-4.393 4.393,-4.393 z"
         style="fill:none;stroke:#ff0000;stroke-width:0.14173229;stroke-miterlimit:4;stroke-opacity:1;stroke-dasharray:none" />
      <path
         inkscape:connector-curvature="0"
         id="path5674"
         d="m 232.86023,310.06643 c 2.42,0 4.394,1.973 4.394,4.393 0,2.42 -1.974,4.394 -4.394,4.394 -2.419,0 -4.393,-1.974 -4.393,-4.394 0,-2.42 1.974,-4.393 4.393,-4.393 z"
         style="fill:none;stroke:#ff0000;stroke-width:0.14173229;stroke-miterlimit:4;stroke-opacity:1;stroke-dasharray:none" />
      <path
         inkscape:connector-curvature="0"
         id="path5676"
         d="m 275.38023,310.06643 c 2.42,0 4.394,1.973 4.394,4.393 0,2.42 -1.974,4.394 -4.394,4.394 -2.42,0 -4.394,-1.974 -4.394,-4.394 0,-2.42 1.974,-4.393 4.394,-4.393 z"
         style="fill:none;stroke:#ff0000;stroke-width:0.14173229;stroke-miterlimit:4;stroke-opacity:1;stroke-dasharray:none" />
      <path
         inkscape:connector-curvature="0"
         id="path5688"
         d="m 163.41223,244.30243 c 1.951,0 3.543,1.592 3.543,3.543 0,1.952 -1.592,3.543 -3.543,3.543 -1.952,0 -3.544,-1.591 -3.544,-3.543 0,-1.951 1.592,-3.543 3.544,-3.543 z"
         style="fill:none;stroke:#ff0000;stroke-width:0.14173229;stroke-miterlimit:4;stroke-opacity:1;stroke-dasharray:none" />
      <path
         inkscape:connector-curvature="0"
         id="path5690"
         d="m 174.75023,244.30243 c 1.952,0 3.544,1.592 3.544,3.543 0,1.952 -1.592,3.543 -3.544,3.543 -1.951,0 -3.543,-1.591 -3.543,-3.543 0,-1.951 1.592,-3.543 3.543,-3.543 z"
         style="fill:none;stroke:#ff0000;stroke-width:0.14173229;stroke-miterlimit:4;stroke-opacity:1;stroke-dasharray:none" />
      <path
         inkscape:connector-curvature="0"
         id="path5692"
         d="m 163.41223,295.32543 c 1.951,0 3.543,1.592 3.543,3.544 0,1.951 -1.592,3.543 -3.543,3.543 -1.952,0 -3.544,-1.592 -3.544,-3.543 0,-1.952 1.592,-3.544 3.544,-3.544 z"
         style="fill:none;stroke:#ff0000;stroke-width:0.14173229;stroke-miterlimit:4;stroke-opacity:1;stroke-dasharray:none" />
      <path
         inkscape:connector-curvature="0"
         id="path5694"
         d="m 174.75023,295.32543 c 1.952,0 3.544,1.592 3.544,3.544 0,1.951 -1.592,3.543 -3.544,3.543 -1.951,0 -3.543,-1.592 -3.543,-3.543 0,-1.952 1.592,-3.544 3.543,-3.544 z"
         style="fill:none;stroke:#ff0000;stroke-width:0.14173229;stroke-miterlimit:4;stroke-opacity:1;stroke-dasharray:none" />
      <path
         inkscape:connector-curvature="0"
         id="path5696"
         d="m 140.02623,279.02643 c 0,-1.951 1.591,-3.543 3.543,-3.543 1.952,0 3.543,1.592 3.543,3.543 0,1.952 -1.591,3.544 -3.543,3.544 -1.952,0 -3.543,-1.592 -3.543,-3.544 z"
         style="fill:none;stroke:#ff0000;stroke-width:0.14173229;stroke-miterlimit:4;stroke-opacity:1;stroke-dasharray:none" />
      <path
         inkscape:connector-curvature="0"
         id="path5698"
         d="m 140.02623,267.68843 c 0,-1.952 1.591,-3.544 3.543,-3.544 1.952,0 3.543,1.592 3.543,3.544 0,1.951 -1.591,3.543 -3.543,3.543 -1.952,0 -3.543,-1.592 -3.543,-3.543 z"
         style="fill:none;stroke:#ff0000;stroke-width:0.14173229;stroke-miterlimit:4;stroke-opacity:1;stroke-dasharray:none" />
      <path
         inkscape:connector-curvature="0"
         id="path5700"
         d="m 191.04923,279.02643 c 0,-1.951 1.592,-3.543 3.544,-3.543 1.951,0 3.543,1.592 3.543,3.543 0,1.952 -1.592,3.544 -3.543,3.544 -1.952,0 -3.544,-1.592 -3.544,-3.544 z"
         style="fill:none;stroke:#ff0000;stroke-width:0.14173229;stroke-miterlimit:4;stroke-opacity:1;stroke-dasharray:none" />
      <path
         inkscape:connector-curvature="0"
         id="path5702"
         d="m 191.04923,267.68843 c 0,-1.952 1.592,-3.544 3.544,-3.544 1.951,0 3.543,1.592 3.543,3.544 0,1.951 -1.592,3.543 -3.543,3.543 -1.952,0 -3.544,-1.592 -3.544,-3.543 z"
         style="fill:none;stroke:#ff0000;stroke-width:0.14173229;stroke-miterlimit:4;stroke-opacity:1;stroke-dasharray:none" />
      <path
         inkscape:connector-curvature="0"
         id="path5704"
         d="m 73.483228,245.63443 c 2.419,0 4.393,1.974 4.393,4.394 0,2.42 -1.974,4.394 -4.393,4.394 -2.42,0 -4.394,-1.974 -4.394,-4.394 0,-2.42 1.974,-4.394 4.394,-4.394 z"
         style="fill:none;stroke:#ff0000;stroke-width:0.14173229;stroke-miterlimit:4;stroke-opacity:1;stroke-dasharray:none" />
      <path
         inkscape:connector-curvature="0"
         id="path5706"
         d="m 137.12023,217.17443 c 2.42,0 4.394,1.974 4.394,4.394 0,2.42 -1.974,4.394 -4.394,4.394 -2.42,0 -4.393,-1.974 -4.393,-4.394 0,-2.42 1.973,-4.394 4.393,-4.394 z"
         style="fill:none;stroke:#ff0000;stroke-width:0.14173229;stroke-miterlimit:4;stroke-opacity:1;stroke-dasharray:none" />
      <path
         inkscape:connector-curvature="0"
         id="path5708"
         d="m 267.51423,245.63443 c -2.42,0 -4.394,1.974 -4.394,4.394 0,2.42 1.974,4.394 4.394,4.394 2.42,0 4.394,-1.974 4.394,-4.394 0,-2.42 -1.974,-4.394 -4.394,-4.394 z"
         style="fill:none;stroke:#ff0000;stroke-width:0.14173229;stroke-miterlimit:4;stroke-opacity:1;stroke-dasharray:none" />
      <path
         inkscape:connector-curvature="0"
         id="path5710"
         d="m 203.87623,217.17443 c -2.42,0 -4.393,1.974 -4.393,4.394 0,2.42 1.973,4.394 4.393,4.394 2.42,0 4.394,-1.974 4.394,-4.394 0,-2.42 -1.974,-4.394 -4.394,-4.394 z"
         style="fill:none;stroke:#ff0000;stroke-width:0.14173229;stroke-miterlimit:4;stroke-opacity:1;stroke-dasharray:none" />
      <path
         inkscape:connector-curvature="0"
         id="path5660"
         d="m 132.23123,614.79044 c 2.419,0 4.393,1.974 4.393,4.394 0,2.42 -1.974,4.393 -4.393,4.393 -2.42,0 -4.394,-1.973 -4.394,-4.393 0,-2.42 1.974,-4.394 4.394,-4.394 z"
         style="fill:none;stroke:#ff0000;stroke-width:0.14173229;stroke-miterlimit:4;stroke-opacity:1;stroke-dasharray:none" />
    </g>
  </g>
</svg>
